<svg width="1920" height="1208" viewBox="0 0 1920 1208" fill="none" xmlns="http://www.w3.org/2000/svg">
<path opacity="0.5" d="M-52.8554 1229.51L-28.7056 476.048C-55.3316 396.725 -70 310.037 -70 219.219C-70 206.828 -69.7116 194.519 -69.173 182.291V233.426H-48.2494V63.2229C-43.3726 47.2976 -38.036 31.6409 -32.2481 16.2821V166.717H-11.3246V70.3585H3.44518V-26H15.7531V45.1566H36.678V-24.5175H105.603L138.836 15.5085V89.6302V267.523H144.05V89.6302H186.837V58.499H226.515V133.115H229.797V58.499H229.915V11.0613H252.07V-6.72789H272.994V12.5438H323.457V76.2882H333.304V49.6042H346.843V105.937H356.691V79.2528H381.306V180.059H428.077V319.408H438.846V283.458L450.232 269.746H464.079V104.825L477.926 88.1481V47.3811L487.156 36.2627V-11.1751H490.849V36.2627L501.926 49.6047V89.6306L517.927 108.902V141.516H529.005V199.331H542.543V369.811H561.006V282.347H584.391V128.174L600.391 108.902V140.033H609.007V92.5953L626.239 71.841V236.392H652.086L676.702 266.04H690.19V173.82L705.318 155.599V122.244H708.703V156.834L723.474 174.623V335.715H737.423V187.471H755.474V132.127H780.091V115.326H791.578V133.115H844.094V180.553V187.471H848.58V254.922H854.734V187.471H861.325V147.446H885.941V280.865H886.119V402.424H894.119V280.865H904.404V184.506H990.561V217.861H990.123V221.554H1004.23V221.567H1014.9V221.554H1015.28V162.257H1050.18V251.203H1053.88V158.551H1053.44V125.196H1139.6V221.554H1149.88V343.114H1157.88V221.554H1158.06V88.1349H1182.68V128.16H1189.27V195.611H1195.42V128.161H1199.91V121.243V73.8049H1252.42V56.0153H1263.91V72.8164H1288.53V128.161H1306.58V276.404H1320.53V115.313L1335.3 97.5238V62.9335H1338.68V96.2883L1353.81 114.51V206.73H1367.3L1391.91 177.081H1417.76V12.5307L1434.99 33.2849V80.7227H1443.61V49.5915L1459.61 68.8632V223.037H1482.99V310.5H1496.24C1496.24 310.5 1496.38 313.548 1496.63 319.137H1515V261.322H1526.07V228.708L1542.07 209.436V169.411L1553.15 156.069V108.631H1556.84V156.069L1566.07 167.187V207.954L1579.92 224.632V389.552H1593.77L1605.15 403.265V439.214H1615.92V299.865H1662.69V199.059H1687.31V225.743H1697.16V169.411H1710.7V196.094H1720.54V132.35H1771.01V113.078H1791.93V130.867H1814.08V178.305H1814.2V252.921H1817.48V178.305H1857.16V209.436H1899.95V387.329H1905.16V209.436V135.315L1938.4 95.2887H2007.32V164.963H2028.25V93.8066H2040.55V190.165H2055.32V286.524H2076.25V136.088C2082.04 151.447 2087.37 167.104 2092.25 183.029V353.233H2113.17V302.097C2113.71 314.326 2114 326.635 2114 339.026C2114 411.174 2104.74 480.714 2087.58 546.029L2114 1226.87C2114 1226.87 1455.94 1259.08 1445.08 1229.51L-52.8554 1229.51Z" fill="url(#paint0_linear_1_1918)"/>
<defs>
<linearGradient id="paint0_linear_1_1918" x1="1022" y1="1159" x2="1022" y2="163" gradientUnits="userSpaceOnUse">
<stop stop-color="#E9FFFE" stop-opacity="0"/>
<stop offset="1" stop-color="#38ADA7" stop-opacity="0.7"/>
</linearGradient>
</defs>
</svg>
