<svg width="48" height="48" viewBox="0 0 48 48" fill="none" xmlns="http://www.w3.org/2000/svg">
<path d="M41.374 38.6918C38.5174 42.1636 34.72 44.686 30.3925 45.9865C28.2659 46.6255 26.0839 46.9449 23.9029 46.9449C21.5498 46.9449 19.1978 46.5734 16.9172 45.8311C10.7018 43.8083 5.72166 39.2512 3.14925 33.2665L2.63372 35.1842C2.53969 35.5341 2.1795 35.742 1.82962 35.6475C1.47966 35.5534 1.27219 35.1934 1.36631 34.8434L2.41041 30.9599C2.46225 30.7672 2.59875 30.6087 2.78156 30.5288C2.96428 30.449 3.17344 30.4566 3.34997 30.5497L6.88959 32.4142C7.21022 32.5832 7.33322 32.98 7.16437 33.3007C6.99534 33.6213 6.59859 33.7442 6.27787 33.5755L4.25428 32.5095C6.64678 38.2641 11.3872 42.6511 17.3234 44.5831C25.5817 47.2706 34.8393 44.5681 40.3605 37.8581C40.5907 37.5782 41.0045 37.5381 41.2842 37.7683C41.5641 37.9986 41.6043 38.4121 41.374 38.692V38.6918ZM44.4773 32.018C44.1413 31.8812 43.7588 32.0433 43.6223 32.3788C43.2996 33.173 42.9253 33.9544 42.5103 34.7014C42.3342 35.0182 42.4483 35.4177 42.7651 35.5938C42.8661 35.6499 42.9754 35.6766 43.0833 35.6766C43.3139 35.6766 43.5376 35.5548 43.6575 35.339C44.0983 34.5457 44.4956 33.7161 44.8383 32.873C44.9748 32.5371 44.8131 32.1544 44.4773 32.018ZM45.6878 25.8215C45.3247 25.7981 45.013 26.0698 44.9882 26.4313C44.9328 27.24 44.8299 28.0529 44.6825 28.8475C44.6163 29.2039 44.8516 29.5463 45.2078 29.6125C45.2483 29.62 45.2886 29.6236 45.3283 29.6236C45.6384 29.6236 45.9142 29.4029 45.9728 29.087C46.1294 28.2429 46.2387 27.3796 46.2975 26.5209C46.3223 26.1593 46.0493 25.8461 45.6877 25.8214L45.6878 25.8215ZM47.2159 16.7631C46.8803 16.6265 46.4974 16.7883 46.3609 17.124L45.6131 18.9635C43.7972 12.7076 39.4159 7.57209 33.4968 4.79943C29.6699 3.00665 25.4354 2.32096 21.2513 2.81662C20.8913 2.85927 20.6341 3.18562 20.6768 3.54543C20.7194 3.90524 21.0462 4.16259 21.4056 4.11993C25.3464 3.65305 29.3349 4.29909 32.9399 5.98799C38.5935 8.63624 42.7578 13.5737 44.4234 19.5788L42.5463 18.2717C42.249 18.0646 41.8399 18.1377 41.6328 18.4352C41.4257 18.7326 41.4988 19.1416 41.7963 19.3487L45.0795 21.6351C45.1908 21.7126 45.3219 21.7528 45.4545 21.7528C45.517 21.7528 45.5798 21.7438 45.641 21.7257C45.8322 21.6691 45.9873 21.5285 46.0624 21.3437L47.5766 17.6183C47.7131 17.2826 47.5515 16.8997 47.2158 16.7633L47.2159 16.7631ZM19.5633 15.5246V17.4831C19.5633 17.9695 19.217 18.3907 18.7398 18.4847L18.0279 18.625L17.5355 19.8137L17.9397 20.4167C18.2106 20.8205 18.1576 21.3631 17.8137 21.7069L16.4289 23.0917C16.0853 23.4354 15.5424 23.4884 15.1386 23.2176L14.5358 22.8134L13.3471 23.3059L13.2067 24.018C13.1125 24.4951 12.6914 24.8412 12.2052 24.8412H10.2467C9.76031 24.8412 9.33909 24.4949 9.24516 24.0177L9.10472 23.3058L7.91606 22.8133L7.31316 23.2176C6.90937 23.4885 6.36656 23.4354 6.02278 23.0915L4.63809 21.7067C4.29413 21.3631 4.24116 20.8204 4.51209 20.4164L4.91634 19.8135L4.42387 18.6248L3.71175 18.4844C3.23484 18.3906 2.88853 17.9694 2.88853 17.483V15.5244C2.88853 15.0382 3.23466 14.6171 3.71166 14.523L4.42387 14.3826L4.91634 13.1939L4.51209 12.5909C4.24116 12.187 4.29422 11.6443 4.63828 11.3005L6.02306 9.91584C6.36675 9.57187 6.90956 9.51909 7.31334 9.78984L7.91616 10.1941L9.10481 9.70162L9.24534 8.9894C9.33919 8.51249 9.76031 8.16618 10.2468 8.16618H12.2053C12.6915 8.16618 13.1126 8.5123 13.2068 8.9893L13.3472 9.70162L14.5358 10.1941L15.1388 9.78984C15.5425 9.51899 16.0851 9.57215 16.4289 9.91565L17.8138 11.3006C18.1576 11.6443 18.2106 12.1869 17.9399 12.5908L17.5356 13.1938L18.028 14.3825L18.7401 14.5229C19.2173 14.617 19.5634 15.0381 19.5634 15.5243L19.5633 15.5246ZM18.2508 15.7645L17.4292 15.6024C17.2138 15.5601 17.0339 15.4127 16.9499 15.2098L16.1885 13.3718C16.1045 13.1691 16.1274 12.9376 16.2497 12.7552L16.7162 12.0595L15.6706 11.0139L14.9749 11.4804C14.7925 11.6029 14.5609 11.6257 14.3583 11.5416L12.5203 10.7802C12.3174 10.6962 12.1701 10.5163 12.1277 10.3009L11.9656 9.47924H10.4869L10.3248 10.301C10.2823 10.5164 10.135 10.6962 9.93216 10.7802L8.09419 11.5416C7.89141 11.6256 7.65994 11.6027 7.47759 11.4804L6.78197 11.0139L5.73637 12.0595L6.20288 12.7552C6.32522 12.9376 6.34819 13.1691 6.26409 13.3719L5.50256 15.2099C5.41856 15.4127 5.23866 15.5601 5.02331 15.6025L4.20169 15.7646V17.2433L5.02331 17.4054C5.23866 17.4478 5.41856 17.5952 5.50256 17.7981L6.26409 19.6361C6.34809 19.839 6.32513 20.0705 6.20288 20.2528L5.73637 20.9484L6.78197 21.994L7.47759 21.5275C7.65994 21.4051 7.89159 21.3822 8.09419 21.4663L9.93216 22.2277C10.135 22.3117 10.2823 22.4916 10.3248 22.707L10.4869 23.5287H11.9656L12.1277 22.7071C12.1701 22.4917 12.3174 22.3118 12.5203 22.2278L14.3583 21.4663C14.5613 21.3823 14.7926 21.4053 14.975 21.5275L15.6707 21.994L16.7163 20.9484L16.2498 20.2528C16.1274 20.0705 16.1045 19.839 16.1886 19.6362L16.95 17.7981C17.034 17.5953 17.2139 17.4479 17.4293 17.4055L18.2509 17.2434V15.7647L18.2508 15.7645ZM15.8213 16.5039C15.8213 19.0377 13.76 21.0993 11.2261 21.0993C8.69222 21.0993 6.63075 19.0378 6.63075 16.5039C6.63075 13.9701 8.69222 11.9087 11.2261 11.9087C13.76 11.9087 15.8213 13.9701 15.8213 16.5039ZM14.5088 16.5039C14.5088 14.6938 13.0362 13.2212 11.2261 13.2212C9.41597 13.2212 7.94325 14.6938 7.94325 16.5039C7.94325 18.3141 9.41588 19.7868 11.2261 19.7868C13.0363 19.7868 14.5088 18.3141 14.5088 16.5039ZM10.5698 28.4009H1.03125C0.668812 28.4009 0.375 28.1071 0.375 27.7446V1.7113C0.375 1.34887 0.668812 1.05505 1.03125 1.05505H14.4469C15.0509 1.05505 15.6041 1.29627 16.0469 1.75284L21.3794 7.08524C21.836 7.52812 22.0772 8.08134 22.0772 8.68546V15.8476H29.4692V14.4338C29.4692 13.5404 30.196 12.8135 31.0895 12.8135H35.2296C36.123 12.8135 36.8498 13.5404 36.8498 14.4338V18.5738C36.8498 19.4673 36.123 20.1942 35.2296 20.1942H31.0895C30.196 20.1942 29.4692 19.4673 29.4692 18.5738V17.1601H22.0772V25.3457H29.4692V23.9319C29.4692 23.0385 30.196 22.3116 31.0895 22.3116H35.2296C36.123 22.3116 36.8498 23.0385 36.8498 23.9319V28.0719C36.8498 28.9654 36.123 29.6922 35.2296 29.6922H31.0895C30.196 29.6922 29.4692 28.9654 29.4692 28.0719V26.6582H22.0772V27.7446C22.0772 28.107 21.7834 28.4008 21.4209 28.4008H11.8823V34.8439H29.4692V33.4301C29.4692 32.5367 30.196 31.8098 31.0895 31.8098H35.2296C36.123 31.8098 36.8498 32.5367 36.8498 33.4301V37.5702C36.8498 38.4636 36.123 39.1905 35.2296 39.1905H31.0895C30.196 39.1905 29.4692 38.4636 29.4692 37.5702V36.1564H11.2261C10.8637 36.1564 10.5698 35.8626 10.5698 35.5001V28.4008V28.4009ZM30.7817 37.5703C30.7817 37.7371 30.9227 37.8781 31.0895 37.8781H35.2296C35.3963 37.8781 35.5373 37.7371 35.5373 37.5703V33.4302C35.5373 33.2634 35.3963 33.1224 35.2296 33.1224H31.0895C30.9227 33.1224 30.7817 33.2634 30.7817 33.4302V37.5703ZM30.7817 28.0721C30.7817 28.2389 30.9227 28.3799 31.0895 28.3799H35.2296C35.3963 28.3799 35.5373 28.2389 35.5373 28.0721V23.9321C35.5373 23.7653 35.3963 23.6243 35.2296 23.6243H31.0895C30.9227 23.6243 30.7817 23.7653 30.7817 23.9321V28.0721ZM30.7817 18.574C30.7817 18.7409 30.9227 18.8819 31.0895 18.8819H35.2296C35.3963 18.8819 35.5373 18.7409 35.5373 18.574V14.434C35.5373 14.2671 35.3963 14.1261 35.2296 14.1261H31.0895C30.9227 14.1261 30.7817 14.2671 30.7817 14.434V18.574ZM16.7822 6.35015H18.7882L16.7822 4.34418V6.35015ZM1.6875 27.0884H20.7647V8.68555C20.7647 8.43712 20.6662 8.22112 20.4634 8.02527C20.4607 8.02265 20.4578 8.01993 20.4552 8.01721L20.4186 7.98055C20.2062 7.77543 19.9282 7.66255 19.6352 7.66255H16.1258C15.7634 7.66255 15.4696 7.36874 15.4696 7.0063V3.49696C15.4696 3.20437 15.3569 2.92649 15.1523 2.71424L15.1148 2.67684C15.1121 2.67421 15.1094 2.6714 15.1068 2.66868C14.9109 2.4659 14.695 2.36737 14.4467 2.36737H1.6875V27.0881V27.0884Z" fill="#2C7B78"/>
</svg>
