<svg width="48" height="48" viewBox="0 0 48 48" fill="none" xmlns="http://www.w3.org/2000/svg">
<path d="M16.0001 34.4H14.4001C13.9583 34.4 13.6001 34.7582 13.6001 35.2C13.6001 35.6418 13.9583 36 14.4001 36H16.0001C16.4419 36 16.8001 35.6418 16.8001 35.2C16.8001 34.7582 16.4419 34.4 16.0001 34.4Z" fill="#2C7B78"/>
<path d="M38.3999 34.4H19.1999C18.7581 34.4 18.3999 34.7582 18.3999 35.2C18.3999 35.6418 18.7581 36 19.1999 36H38.3999C38.8417 36 39.1999 35.6418 39.1999 35.2C39.1999 34.7582 38.8417 34.4 38.3999 34.4Z" fill="#2C7B78"/>
<path d="M16.0001 29.6H14.4001C13.9583 29.6 13.6001 29.9582 13.6001 30.4C13.6001 30.8418 13.9583 31.2 14.4001 31.2H16.0001C16.4419 31.2 16.8001 30.8418 16.8001 30.4C16.8001 29.9582 16.4419 29.6 16.0001 29.6Z" fill="#2C7B78"/>
<path d="M38.3999 29.6H19.1999C18.7581 29.6 18.3999 29.9582 18.3999 30.4C18.3999 30.8418 18.7581 31.2 19.1999 31.2H38.3999C38.8417 31.2 39.1999 30.8418 39.1999 30.4C39.1999 29.9582 38.8417 29.6 38.3999 29.6Z" fill="#2C7B78"/>
<path d="M16.0001 24.8H14.4001C13.9583 24.8 13.6001 25.1582 13.6001 25.6C13.6001 26.0418 13.9583 26.4 14.4001 26.4H16.0001C16.4419 26.4 16.8001 26.0418 16.8001 25.6C16.8001 25.1582 16.4419 24.8 16.0001 24.8Z" fill="#2C7B78"/>
<path d="M38.3999 24.8H19.1999C18.7581 24.8 18.3999 25.1582 18.3999 25.6C18.3999 26.0418 18.7581 26.4 19.1999 26.4H38.3999C38.8417 26.4 39.1999 26.0418 39.1999 25.6C39.1999 25.1582 38.8417 24.8 38.3999 24.8Z" fill="#2C7B78"/>
<path d="M16.0001 20H14.4001C13.9583 20 13.6001 20.3582 13.6001 20.8C13.6001 21.2418 13.9583 21.6 14.4001 21.6H16.0001C16.4419 21.6 16.8001 21.2418 16.8001 20.8C16.8001 20.3582 16.4419 20 16.0001 20Z" fill="#2C7B78"/>
<path d="M38.3999 20H19.1999C18.7581 20 18.3999 20.3582 18.3999 20.8C18.3999 21.2418 18.7581 21.6 19.1999 21.6H38.3999C38.8417 21.6 39.1999 21.2418 39.1999 20.8C39.1999 20.3582 38.8417 20 38.3999 20Z" fill="#2C7B78"/>
<path d="M16.0001 15.2H14.4001C13.9583 15.2 13.6001 15.5582 13.6001 16C13.6001 16.4418 13.9583 16.8 14.4001 16.8H16.0001C16.4419 16.8 16.8001 16.4418 16.8001 16C16.8001 15.5582 16.4419 15.2 16.0001 15.2Z" fill="#2C7B78"/>
<path d="M38.3999 15.2H19.1999C18.7581 15.2 18.3999 15.5582 18.3999 16C18.3999 16.4418 18.7581 16.8 19.1999 16.8H38.3999C38.8417 16.8 39.1999 16.4418 39.1999 16C39.1999 15.5582 38.8417 15.2 38.3999 15.2Z" fill="#2C7B78"/>
<path d="M43.9896 11.9496C43.9856 11.8795 43.9719 11.8103 43.9488 11.744C43.94 11.7184 43.9336 11.6936 43.9224 11.6688C43.8835 11.5818 43.8293 11.5024 43.7624 11.4344L32.5624 0.2344C32.4944 0.1675 32.415 0.1133 32.328 0.0744C32.3032 0.0632 32.2784 0.0568 32.2536 0.048C32.1867 0.025 32.117 0.011 32.0464 0.0064C32.0328 0.0088 32.0176 0 32 0H9.6C9.1582 0 8.8 0.3582 8.8 0.8V3.2H4.8C4.3582 3.2 4 3.5582 4 4V47.2C4 47.6418 4.3582 48 4.8 48H38.4C38.8418 48 39.2 47.6418 39.2 47.2V43.2H43.2C43.6418 43.2 44 42.8418 44 42.4V12C44 11.9824 43.9912 11.9672 43.9896 11.9496ZM32.8 2.7312L41.2688 11.2H32.8V2.7312ZM37.6 46.4H5.6V4.8H8.8V42.4C8.8 42.8418 9.1582 43.2 9.6 43.2H37.6V46.4ZM42.4 41.6H10.4V1.6H31.2V12C31.2 12.4418 31.5582 12.8 32 12.8H42.4V41.6Z" fill="#2C7B78"/>
<path d="M19.2001 7.19995H14.4001C13.9583 7.19995 13.6001 7.55815 13.6001 7.99995V12.8C13.6001 13.2418 13.9583 13.6 14.4001 13.6H19.2001C19.6419 13.6 20.0001 13.2418 20.0001 12.8V7.99995C20.0001 7.55815 19.6419 7.19995 19.2001 7.19995ZM18.4001 12H15.2001V8.79995H18.4001V12Z" fill="#2C7B78"/>
</svg>
