<svg width="93" height="94" viewBox="0 0 93 94" fill="none" xmlns="http://www.w3.org/2000/svg">
<rect y="0.435059" width="93" height="93" rx="10" fill="#063E13" fill-opacity="0.3"/>
<g clip-path="url(#clip0_49_194)">
<g clip-path="url(#clip1_49_194)">
<path d="M25.2127 28.4063C28.4808 28.8642 31.4765 30.2177 33.8753 32.3205C37.9474 35.8897 43.1857 37.9821 48.6258 38.2125C48.9597 38.2266 49.2929 38.2338 49.6263 38.2336C54.7989 38.2336 59.8772 36.5391 64.0248 33.4111C65.7061 32.1431 67.1971 30.6714 68.4799 29.0286C69.9384 30.3417 71.2705 31.7963 72.4436 33.3677C72.7312 33.7529 73.1721 33.9564 73.6184 33.9564C73.923 33.9564 74.2305 33.8616 74.4935 33.6653C75.1418 33.1814 75.2749 32.2636 74.791 31.6154C73.2545 29.5572 71.4691 27.6822 69.4956 26.0356C68.693 23.6601 67.5163 21.421 65.9929 19.3746C62.867 15.1751 58.5524 12.1866 53.5156 10.7321C48.6434 9.32526 43.3479 9.50556 38.6046 11.2402C37.8448 11.5179 37.4542 12.359 37.7321 13.1187C38.0098 13.8783 38.8508 14.2691 39.6106 13.9912C43.7741 12.4686 48.4237 12.3107 52.7028 13.5464C57.1195 14.8218 60.9026 17.442 63.6431 21.1237C64.0283 21.6412 64.385 22.174 64.7191 22.7178C64.3027 22.4803 63.8828 22.2492 63.4564 22.0305C59.1945 19.8452 54.6166 18.6514 49.8314 18.4687L46.4991 15.5309C45.8923 14.996 44.9669 15.0541 44.4319 15.661C43.897 16.2678 43.9551 17.1933 44.5619 17.7282L45.526 18.578C43.3012 18.781 41.1088 19.2091 38.9781 19.8585C38.2043 20.0943 37.7681 20.9128 38.0041 21.6866C38.2397 22.4604 39.059 22.8968 39.8319 22.6606C42.6413 21.8043 45.5699 21.3702 48.5366 21.3702C51.1125 21.3702 53.6251 21.6916 56.0563 22.3237L52.5348 25.2117C51.9094 25.7247 51.8182 26.6475 52.3311 27.2731C52.6208 27.6262 53.0409 27.809 53.4645 27.809C53.7911 27.809 54.12 27.7002 54.3925 27.4768L59.3657 23.3982C60.2983 23.7633 61.2174 24.1743 62.1199 24.6371C63.5479 25.3693 64.9162 26.2229 66.2108 27.1789C65.0769 28.6399 63.7534 29.9464 62.2606 31.0724C58.3865 33.9944 53.5875 35.4906 48.7494 35.286C43.9742 35.0839 39.3776 33.2483 35.806 30.1178C33.4135 28.0207 30.525 26.5564 27.3715 25.8294C28.0161 24.2244 28.8528 22.712 29.8695 21.317C30.3458 20.6634 30.2021 19.7471 29.5484 19.2708C28.8947 18.7946 27.9783 18.9381 27.502 19.592C25.9727 21.6908 24.8005 24.0211 24.0181 26.5182C23.8895 26.9289 23.948 27.3753 24.1781 27.739C24.4082 28.1024 24.7865 28.3465 25.2127 28.4063Z" fill="#063E13"/>
<path d="M39.2243 69.5032C40.2793 64.1922 39.4722 58.6093 36.9515 53.7828C34.3961 48.8897 30.1849 45.0061 25.0939 42.8476C23.1553 42.0257 21.1358 41.4667 19.0717 41.1773C19.4794 39.2588 20.0729 37.379 20.8468 35.5784C21.1663 34.8352 20.8227 33.9738 20.0796 33.6544C19.3357 33.3348 18.475 33.6785 18.1555 34.4217C17.1414 36.7814 16.4102 39.2652 15.971 41.7976C14.3152 43.6803 12.9643 45.8191 11.9537 48.1616C9.43125 54.0079 9.34879 60.499 11.7214 66.439C14.1063 72.4103 18.6765 77.089 24.5902 79.6136C27.5622 80.8825 30.7097 81.5234 33.8882 81.5234C35.6333 81.5234 37.3883 81.3301 39.1274 80.9412C39.5474 80.8473 39.905 80.5734 40.1048 80.1923C40.3049 79.8112 40.3272 79.3614 40.1657 78.9626C38.9284 75.9029 38.6027 72.632 39.2243 69.5032ZM25.7404 76.9192C20.5485 74.7027 16.5357 70.5948 14.4419 65.3522C12.3603 60.1408 12.4319 54.4478 14.6434 49.3217C14.899 48.7294 15.182 48.1541 15.486 47.5928C15.4885 48.0722 15.4982 48.5515 15.522 49.03C15.7605 53.8136 17.0156 58.3753 19.2502 62.6106L18.3721 66.9654C18.2122 67.7583 18.7254 68.5308 19.5184 68.6906C19.6161 68.7102 19.7135 68.7197 19.8094 68.7197C20.4922 68.7197 21.1034 68.2395 21.2436 67.5443L21.4976 66.2847C22.7858 68.1099 24.2528 69.7945 25.8804 71.315C26.1628 71.5788 26.5218 71.7093 26.8799 71.7093C27.2716 71.7093 27.6622 71.5531 27.9506 71.2444C28.5029 70.6532 28.4713 69.7264 27.8801 69.1742C25.7341 67.1694 23.8938 64.8502 22.4104 62.2811C21.1223 60.0503 20.1444 57.7135 19.4762 55.292L23.7381 56.8977C23.9081 56.9619 24.0827 56.9922 24.2541 56.9922C24.8462 56.9922 25.4038 56.6304 25.6249 56.0435C25.91 55.2866 25.5278 54.4416 24.7707 54.1564L18.7518 51.8887C18.6017 50.8986 18.4981 49.8971 18.4476 48.8839C18.3677 47.2812 18.4227 45.6693 18.6033 44.0703C20.4356 44.3218 22.2289 44.8145 23.9503 45.5444C28.4178 47.4385 32.1129 50.8459 34.3548 55.1388C36.5674 59.3753 37.2761 64.2739 36.3507 68.9323C35.7309 72.053 35.9069 75.2864 36.8543 78.3813C33.0778 78.9214 29.267 78.4247 25.7404 76.9192Z" fill="#063E13"/>
<path d="M84.8235 53.8977C84.2237 48.9281 82.1078 44.345 78.7045 40.6442C78.4132 40.3273 77.9942 40.1543 77.5674 40.1722C77.1372 40.1894 76.7368 40.3951 76.4719 40.7343C74.4413 43.3357 71.7714 45.2531 68.7508 46.2792C63.6239 48.021 59.1924 51.5114 56.2731 56.1075C53.3131 60.7672 52.0554 66.3561 52.7317 71.8443C52.9891 73.9343 53.5148 75.9625 54.2962 77.8949C52.4308 78.5009 50.5062 78.927 48.5597 79.157C47.7565 79.2519 47.1822 79.9801 47.2771 80.7833C47.3651 81.5283 47.9977 82.0762 48.7298 82.0762C48.7872 82.0762 48.8452 82.0728 48.9036 82.0659C51.4552 81.7644 53.9725 81.1553 56.386 80.2691C57.9233 80.577 59.4871 80.7332 61.0632 80.7332C62.0068 80.7332 62.9547 80.6779 63.9035 80.5671C70.2279 79.8284 75.8905 76.6543 79.8484 71.6296C83.8273 66.5784 85.594 60.2811 84.8235 53.8977ZM77.5474 69.8169C74.0749 74.2253 69.1088 77.0098 63.5637 77.6576C62.9229 77.7324 62.2832 77.7751 61.645 77.7925C62.0589 77.5507 62.4692 77.3026 62.8715 77.0427C66.8951 74.4446 70.2181 71.0767 72.7688 67.0238L76.9792 65.6069C77.7458 65.3488 78.1582 64.5182 77.9001 63.7516C77.6422 62.9852 76.8119 62.5723 76.0448 62.8307L74.827 63.2406C75.7635 61.2125 76.4888 59.0999 76.9918 56.9298C77.1745 56.1418 76.6837 55.3549 75.8958 55.1722C75.1079 54.9894 74.3209 55.4802 74.1383 56.2682C73.475 59.1296 72.3866 61.883 70.9034 64.4519C69.6154 66.6827 68.0807 68.6979 66.3177 70.4873L65.5773 65.9936C65.4458 65.1955 64.6944 64.6552 63.894 64.7864C63.0959 64.9179 62.5554 65.6715 62.687 66.4698L63.7326 72.8161C62.9502 73.4413 62.1347 74.0317 61.2825 74.5819C59.9343 75.4525 58.5111 76.2108 57.0359 76.8539C56.3375 75.1414 55.8676 73.342 55.639 71.4862C55.0457 66.6701 56.1489 61.7664 58.7457 57.6784C61.3084 53.644 65.1962 50.5808 69.6932 49.053C72.7057 48.0295 75.4181 46.2603 77.6245 43.8926C79.9811 46.8934 81.4559 50.4419 81.9154 54.2487C82.5918 59.8533 81.0405 65.3822 77.5474 69.8169Z" fill="#063E13"/>
<path d="M33.315 17.2284C34.1239 17.2284 34.7797 16.5726 34.7797 15.7637C34.7797 14.9548 34.1239 14.2991 33.315 14.2991C32.5061 14.2991 31.8503 14.9548 31.8503 15.7637C31.8503 16.5726 32.5061 17.2284 33.315 17.2284Z" fill="#063E13"/>
</g>
</g>
<defs>
<clipPath id="clip0_49_194">
<rect width="75" height="75" fill="white" transform="translate(8 8.43506)"/>
</clipPath>
<clipPath id="clip1_49_194">
<rect width="75" height="75" fill="white" transform="translate(10 8.43506)"/>
</clipPath>
</defs>
</svg>
