<svg width="48" height="48" viewBox="0 0 48 48" fill="none" xmlns="http://www.w3.org/2000/svg">
<g clip-path="url(#clip0_1_2000)">
<path d="M28.6451 40.2581C27.3646 40.2581 26.3225 41.3001 26.3225 42.5806C26.3225 43.8612 27.3646 44.9032 28.6451 44.9032C29.9256 44.9032 30.9677 43.8612 30.9677 42.5806C30.9677 41.3001 29.9256 40.2581 28.6451 40.2581ZM28.6451 43.3548C28.2185 43.3548 27.8709 43.008 27.8709 42.5806C27.8709 42.1533 28.2185 41.8064 28.6451 41.8064C29.0717 41.8064 29.4193 42.1533 29.4193 42.5806C29.4193 43.008 29.0717 43.3548 28.6451 43.3548Z" fill="#2C7B78"/>
<path d="M10.0645 40.2581C8.78401 40.2581 7.74194 41.3001 7.74194 42.5806C7.74194 43.8612 8.78401 44.9032 10.0645 44.9032C11.345 44.9032 12.3871 43.8612 12.3871 42.5806C12.3871 41.3001 11.345 40.2581 10.0645 40.2581ZM10.0645 43.3548C9.63794 43.3548 9.29033 43.008 9.29033 42.5806C9.29033 42.1533 9.63794 41.8064 10.0645 41.8064C10.4911 41.8064 10.8387 42.1533 10.8387 42.5806C10.8387 43.008 10.4911 43.3548 10.0645 43.3548Z" fill="#2C7B78"/>
<path d="M11.6129 12.3871C12.8934 12.3871 13.9354 11.345 13.9354 10.0645C13.9354 8.78401 12.8934 7.74194 11.6129 7.74194C10.3323 7.74194 9.29028 8.78401 9.29028 10.0645C9.29028 11.345 10.3323 12.3871 11.6129 12.3871ZM11.6129 9.29033C12.0394 9.29033 12.3871 9.63717 12.3871 10.0645C12.3871 10.4919 12.0394 10.8387 11.6129 10.8387C11.1863 10.8387 10.8387 10.4919 10.8387 10.0645C10.8387 9.63717 11.1863 9.29033 11.6129 9.29033Z" fill="#2C7B78"/>
<path d="M42.5806 27.871C41.3001 27.871 40.2581 28.913 40.2581 30.1936C40.2581 31.4741 41.3001 32.5161 42.5806 32.5161C43.8612 32.5161 44.9032 31.4741 44.9032 30.1936C44.9032 28.913 43.8612 27.871 42.5806 27.871ZM42.5806 30.9677C42.1541 30.9677 41.8064 30.6209 41.8064 30.1936C41.8064 29.7662 42.1541 29.4194 42.5806 29.4194C43.0072 29.4194 43.3548 29.7662 43.3548 30.1936C43.3548 30.6209 43.0072 30.9677 42.5806 30.9677Z" fill="#2C7B78"/>
<path d="M43.3208 24.8307C43.3324 24.5535 43.3548 24.2764 43.3548 24C43.3548 20.4712 42.3917 17.0408 40.5832 14.0361C41.3752 12.6426 41.8064 11.0532 41.8064 9.44206V9.29032C41.8064 4.16748 37.639 0 32.5161 0C29.0803 0 26.0803 1.87974 24.473 4.66065C21.4715 4.59174 18.4243 5.232 15.7037 6.52103C14.7089 5.37445 13.2457 4.64516 11.6129 4.64516C8.62452 4.64516 6.19355 7.0769 6.19355 10.0645C6.19355 11.2305 6.5791 12.3848 7.27742 13.3154L7.59794 13.7427C5.80877 16.5987 4.80697 19.8495 4.67381 23.2258H3.09677C2.24284 23.2258 1.54839 23.9203 1.54839 24.7742V40.2581C0.694452 40.2581 0 40.9525 0 41.8064V43.3548C0 44.2088 0.694452 44.9032 1.54839 44.9032H5.17548C6.04723 46.7311 7.90839 48 10.0645 48C12.2206 48 14.0818 46.7311 14.9535 44.9032H23.7561C24.6279 46.7311 26.489 48 28.6452 48C30.8013 48 32.6624 46.7311 33.5342 44.9032H35.6129C36.4668 44.9032 37.1613 44.2088 37.1613 43.3548V41.2227C37.1613 41.0338 37.1381 40.8449 37.0924 40.6591L36.5969 38.6772C37.7505 37.687 38.7794 36.5706 39.6689 35.3427L42.5806 39.2261L46.9161 33.4452C47.6152 32.5138 48 31.3587 48 30.1935C48 27.4575 45.9592 25.1938 43.3208 24.8307ZM32.5161 1.54839C36.785 1.54839 40.2581 5.02142 40.2581 9.29032V9.44129C40.2581 11.1677 39.6704 12.8671 38.6036 14.2243L32.5161 21.9732L26.4286 14.2243C25.3618 12.8671 24.7742 11.1685 24.7742 9.44129V9.29032C24.7742 5.02142 28.2472 1.54839 32.5161 1.54839ZM11.6129 6.19355C13.7474 6.19355 15.4839 7.93006 15.4839 10.0645C15.4839 10.8968 15.209 11.7221 14.7097 12.3863L11.6129 16.5159L8.51613 12.3863C8.01677 11.7221 7.74194 10.8968 7.74194 10.0645C7.74194 7.93006 9.47845 6.19355 11.6129 6.19355ZM3.09677 24.7742H9.29032V30.672L13.1613 28.7365L17.0323 30.672V24.7742H23.2258V40.2581H14.9535C14.0818 38.4302 12.2206 37.1613 10.0645 37.1613C7.90839 37.1613 6.04723 38.4302 5.17548 40.2581H3.09677V24.7742ZM10.8387 24.7742H15.4839V28.1667L13.1613 27.0054L10.8387 28.1667V24.7742ZM24.7742 29.4194H32.081C32.4364 29.4194 32.7461 29.6609 32.832 30.0054L33.0728 30.9677H29.4194C28.5654 30.9677 27.871 31.6622 27.871 32.5161V34.0645C27.871 34.9184 28.5654 35.6129 29.4194 35.6129H34.2341L35.3954 40.2581H33.5342C32.6624 38.4302 30.8013 37.1613 28.6452 37.1613C27.1293 37.1613 25.759 37.7884 24.7742 38.7956V29.4194ZM33.847 34.0645H29.4194V32.5161H33.4599L33.847 34.0645ZM1.54839 43.3548V41.8064H4.7071C4.67071 42.0604 4.64516 42.3174 4.64516 42.5806C4.64516 42.8439 4.67071 43.1009 4.7071 43.3548H1.54839ZM10.0645 46.4516C7.93006 46.4516 6.19355 44.7151 6.19355 42.5806C6.19355 40.4462 7.93006 38.7097 10.0645 38.7097C12.199 38.7097 13.9355 40.4462 13.9355 42.5806C13.9355 44.7151 12.199 46.4516 10.0645 46.4516ZM15.4219 43.3548C15.4583 43.1009 15.4839 42.8439 15.4839 42.5806C15.4839 42.3174 15.4583 42.0604 15.4219 41.8064H23.2877C23.2514 42.0604 23.2258 42.3174 23.2258 42.5806C23.2258 42.8439 23.2514 43.1009 23.2877 43.3548H15.4219ZM28.6452 46.4516C26.5107 46.4516 24.7742 44.7151 24.7742 42.5806C24.7742 40.4462 26.5107 38.7097 28.6452 38.7097C30.7796 38.7097 32.5161 40.4462 32.5161 42.5806C32.5161 44.7151 30.7796 46.4516 28.6452 46.4516ZM34.0026 43.3548C34.039 43.1009 34.0645 42.8439 34.0645 42.5806C34.0645 42.3174 34.039 42.0604 34.0026 41.8064H35.6129V43.3548H34.0026ZM36.1742 36.9871L34.3347 29.6299C34.0754 28.5948 33.1486 27.871 32.081 27.871H24.7742V24.7742C24.7742 23.9203 24.0797 23.2258 23.2258 23.2258H6.22142C6.34529 20.3412 7.15355 17.5572 8.59587 15.0743L11.6129 19.097L15.9484 13.3161C16.6475 12.3848 17.0323 11.2297 17.0323 10.0645C17.0323 9.26787 16.855 8.51303 16.5445 7.83097C18.8129 6.78039 21.2361 6.23226 23.7646 6.20052C23.4225 7.16903 23.2258 8.20568 23.2258 9.29032V9.44129C23.2258 11.5138 23.9311 13.553 25.2108 15.1812L32.5161 24.4785L39.6155 15.4428C41.0501 18.0565 41.8064 20.9907 41.8064 24C41.8064 24.2795 41.7848 24.5605 41.7724 24.8415C39.1672 25.2341 37.1613 27.4808 37.1613 30.1935C37.1613 31.3595 37.5468 32.5138 38.2452 33.4444L38.6919 34.0405C37.9587 35.1112 37.1203 36.1006 36.1742 36.9871ZM45.6774 32.5154L42.5806 36.6449L39.4839 32.5154C38.9845 31.8511 38.7097 31.0258 38.7097 30.1935C38.7097 28.0591 40.4462 26.3226 42.5806 26.3226C44.7151 26.3226 46.4516 28.0591 46.4516 30.1935C46.4516 31.0258 46.1768 31.8511 45.6774 32.5154Z" fill="#2C7B78"/>
<path d="M32.5161 15.4839C35.931 15.4839 38.7096 12.7053 38.7096 9.29035C38.7096 5.87538 35.931 3.0968 32.5161 3.0968C29.1011 3.0968 26.3225 5.87538 26.3225 9.29035C26.3225 12.7053 29.1011 15.4839 32.5161 15.4839ZM32.5161 4.64519C35.0779 4.64519 37.1612 6.72854 37.1612 9.29035C37.1612 11.8522 35.0779 13.9355 32.5161 13.9355C29.9543 13.9355 27.8709 11.8522 27.8709 9.29035C27.8709 6.72854 29.9543 4.64519 32.5161 4.64519Z" fill="#2C7B78"/>
<path d="M18.5806 20.129H20.129V21.6774H18.5806V20.129Z" fill="#2C7B78"/>
<path d="M21.6775 20.129H23.2259V21.6774H21.6775V20.129Z" fill="#2C7B78"/>
<path d="M24.7742 20.129H26.3226V21.6774H24.7742V20.129Z" fill="#2C7B78"/>
</g>
<defs>
<clipPath id="clip0_1_2000">
<rect width="48" height="48" fill="white"/>
</clipPath>
</defs>
</svg>
