<svg width="93" height="94" viewBox="0 0 93 94" fill="none" xmlns="http://www.w3.org/2000/svg">
<rect y="0.435059" width="93" height="93" rx="10" fill="#4CA329" fill-opacity="0.3"/>
<path d="M19.3638 38.969C19.9093 38.969 20.3638 38.5258 20.3638 37.9804V22.0713C20.3638 21.5258 19.9206 21.0713 19.3638 21.0713H14.8184C14.2729 21.0713 13.8184 21.5145 13.8184 22.0713V37.9804C13.8184 38.5258 14.2615 38.969 14.8184 38.969H19.3638ZM15.8184 23.0599H18.3752V36.9804H15.8184V23.0599Z" fill="#4CA329"/>
<path d="M28.4546 21.9691C29.0001 21.9691 29.4546 21.5259 29.4546 20.9691V17.5259C29.4546 16.9804 29.0115 16.5259 28.4546 16.5259H23.9092C23.3637 16.5259 22.9092 16.9691 22.9092 17.5259V37.9804C22.9092 38.5259 23.3524 38.9691 23.9092 38.9691H28.4546C29.0001 38.9691 29.4546 38.5259 29.4546 37.9804V25.1509C29.4546 24.6054 29.0115 24.1509 28.4546 24.1509C27.8978 24.1509 27.4546 24.5941 27.4546 25.1509V36.9804H24.8978V18.5145H27.4546V20.9691C27.466 21.5145 27.9092 21.9691 28.4546 21.9691Z" fill="#4CA329"/>
<path d="M38.5455 26.6169C38.5455 26.0715 38.1023 25.6169 37.5455 25.6169H33C32.4545 25.6169 32 26.0601 32 26.6169V37.9806C32 38.526 32.4432 38.9692 33 38.9692H37.5455C38.0909 38.9692 38.5455 38.526 38.5455 37.9806V26.6169ZM36.5568 36.9806H34V27.6056H36.5568V36.9806Z" fill="#4CA329"/>
<path d="M56.7274 28.8896C56.7274 28.3442 56.2842 27.8896 55.7274 27.8896H42.0911C41.5456 27.8896 41.0911 28.3328 41.0911 28.8896C41.0911 29.4465 41.5342 29.8896 42.0911 29.8896H55.7274C56.2729 29.8783 56.7274 29.4351 56.7274 28.8896Z" fill="#4CA329"/>
<path d="M55.7274 23.3442H42.0911C41.5456 23.3442 41.0911 23.7874 41.0911 24.3442C41.0911 24.9011 41.5342 25.3442 42.0911 25.3442H55.7274C56.2729 25.3442 56.7274 24.9011 56.7274 24.3442C56.7274 23.7874 56.2729 23.3442 55.7274 23.3442Z" fill="#4CA329"/>
<path d="M55.7274 18.7986H48.9092C48.3637 18.7986 47.9092 19.2418 47.9092 19.7986C47.9092 20.3554 48.3524 20.7986 48.9092 20.7986H55.7274C56.2728 20.7986 56.7274 20.3554 56.7274 19.7986C56.7274 19.2418 56.2728 18.7986 55.7274 18.7986Z" fill="#4CA329"/>
<path d="M26.1819 77.6169C29.4773 77.6169 32.591 76.3328 34.9205 73.9919C37.25 71.6624 38.5341 68.5487 38.5341 65.2533C38.5341 58.4351 32.9887 52.8896 26.1705 52.8896C19.3523 52.8896 13.8296 58.4351 13.8296 65.2533C13.8296 72.0715 19.3637 77.6169 26.1819 77.6169ZM34.1819 71.8442L28.5796 66.2419H36.5C36.3069 68.3101 35.5114 70.2533 34.1819 71.8442ZM36.5 64.2647H27.1705V54.9351C32.1023 55.401 36.0341 59.3328 36.5 64.2647ZM25.1932 54.9351V65.2533C25.1932 65.276 25.2046 65.2987 25.2046 65.3215C25.216 65.4124 25.2273 65.4919 25.25 65.5715C25.2614 65.5942 25.2614 65.6169 25.2614 65.6396C25.2614 65.651 25.2728 65.6624 25.2841 65.6737C25.3296 65.776 25.3978 65.8783 25.4773 65.9578L32.7728 73.2533C30.9205 74.7874 28.6137 75.6169 26.1819 75.6169C20.466 75.6169 15.8069 70.9692 15.8069 65.2419C15.8182 59.8669 19.9319 55.4351 25.1932 54.9351Z" fill="#4CA329"/>
<path d="M55.7273 77.6167C56.2728 77.6167 56.7273 77.1736 56.7273 76.6167V72.0713C56.7273 71.5258 56.2842 71.0713 55.7273 71.0713H51.1819C50.6364 71.0713 50.1819 71.5145 50.1819 72.0713V76.6167C50.1819 77.1622 50.6251 77.6167 51.1819 77.6167H55.7273ZM52.1819 73.0713H54.7387V75.6281H52.1819V73.0713Z" fill="#4CA329"/>
<path d="M46.6365 71.0828H42.0911C41.5456 71.0828 41.0911 71.5259 41.0911 72.0828V76.6282C41.0911 77.1737 41.5342 77.6282 42.0911 77.6282H46.6365C47.182 77.6282 47.6365 77.185 47.6365 76.6282V72.0828C47.6365 71.5259 47.182 71.0828 46.6365 71.0828ZM45.6479 75.6282H43.0911V73.0714H45.6479V75.6282Z" fill="#4CA329"/>
<path d="M47.6365 62.9805C47.6365 62.435 47.1933 61.9805 46.6365 61.9805H42.0911C41.5456 61.9805 41.0911 62.4237 41.0911 62.9805V67.5259C41.0911 68.0714 41.5342 68.5259 42.0911 68.5259H46.6365C47.182 68.5259 47.6365 68.0827 47.6365 67.5259V62.9805ZM45.6479 66.5373H43.0911V63.9805H45.6479V66.5373Z" fill="#4CA329"/>
<path d="M74.1024 63.8895L75.9547 62.0372L80.0229 66.1054C80.4092 66.4918 81.0456 66.4918 81.432 66.1054C81.8183 65.719 81.8183 65.0827 81.432 64.6963L77.3638 60.6281L77.4774 60.5145C78.7615 59.2304 78.7615 57.1395 77.4774 55.844L75.4774 53.844C76.1024 52.1168 76.4433 50.2872 76.4433 48.4009C76.4433 44.1395 74.7842 40.1281 71.7615 37.1054C68.7388 34.094 64.7388 32.4236 60.466 32.4236C56.1933 32.4236 52.1933 34.0827 49.1706 37.1054C46.1592 40.1168 44.4888 44.1281 44.4888 48.4009C44.4888 52.6736 46.1479 56.6736 49.1706 59.6963C52.1933 62.7077 56.1933 64.3781 60.466 64.3781C62.3524 64.3781 64.1933 64.0372 65.9206 63.4122L67.9206 65.4122C68.5683 66.0599 69.4092 66.3781 70.2501 66.3781C71.091 66.3781 71.9433 66.0599 72.5797 65.4122L72.6933 65.2986L80.0229 72.6281C80.216 72.8213 80.4774 72.9236 80.7274 72.9236C80.9774 72.9236 81.2388 72.8327 81.432 72.6281C81.8183 72.2418 81.8183 71.6054 81.432 71.219L74.1024 63.8895ZM50.591 58.2986C45.1365 52.844 45.1365 43.9804 50.591 38.5259C53.3183 35.7986 56.8979 34.4349 60.4774 34.4349C64.057 34.4349 67.6365 35.7986 70.3638 38.5259C75.8183 43.9804 75.8183 52.844 70.3638 58.2986C64.9206 63.7531 56.0456 63.7531 50.591 58.2986ZM69.3297 64.0031L67.8865 62.5599C69.2956 61.8213 70.6138 60.8668 71.7729 59.7077C72.9319 58.5486 73.8865 57.2418 74.6251 55.8213L76.0683 57.2645C76.3183 57.5145 76.4547 57.844 76.4547 58.1963C76.4547 58.5486 76.3183 58.8781 76.0683 59.1168L71.1819 64.0031C70.6819 64.5031 69.8297 64.5031 69.3297 64.0031Z" fill="#4CA329"/>
<path d="M70.25 53.1283C70.7614 53.3215 71.3409 53.0601 71.5341 52.5374C73.1364 48.2192 72.0796 43.3215 68.8296 40.0715C66.6023 37.8442 63.6364 36.6169 60.4887 36.6169C57.3409 36.6169 54.375 37.8442 52.1477 40.0715C47.5455 44.6738 47.5455 52.151 52.1477 56.7533C54.375 58.9806 57.3409 60.2079 60.4887 60.2079C63.6364 60.2079 66.6023 58.9806 68.8296 56.7533C69.25 56.3329 69.6478 55.8669 69.9887 55.401C70.3182 54.9579 70.2159 54.3329 69.7728 54.0147C69.3296 53.6851 68.7046 53.7874 68.3864 54.2306C68.1023 54.6283 67.7728 55.0033 67.4205 55.3556C65.5682 57.2079 63.1023 58.2306 60.4887 58.2306C57.875 58.2306 55.4091 57.2079 53.5568 55.3556C49.7273 51.5374 49.7273 45.3101 53.5568 41.4919C55.4091 39.6397 57.875 38.6169 60.4887 38.6169C63.1023 38.6169 65.5682 39.6397 67.4205 41.4919C70.125 44.1965 71.0114 48.2647 69.6705 51.8556C69.4773 52.3556 69.7387 52.9351 70.25 53.1283Z" fill="#4CA329"/>
<path d="M60.4774 43.7304C61.5001 43.7304 62.3297 44.5599 62.3297 45.5827C62.3297 46.1281 62.7728 46.5827 63.3297 46.5827C63.8865 46.5827 64.3297 46.1395 64.3297 45.5827C64.3297 43.8099 63.1251 42.3327 61.4887 41.8895V41.3213C61.4887 40.7758 61.0456 40.3213 60.4887 40.3213C59.9319 40.3213 59.4887 40.7645 59.4887 41.3213V41.8895C57.8524 42.3327 56.6478 43.8099 56.6478 45.5827C56.6478 47.6963 58.3637 49.4236 60.4887 49.4236C61.5115 49.4236 62.341 50.2531 62.341 51.2758C62.341 52.2986 61.5115 53.1281 60.4887 53.1281C59.466 53.1281 58.6365 52.2986 58.6365 51.2758C58.6365 50.7304 58.1933 50.2758 57.6365 50.2758C57.0797 50.2758 56.6365 50.719 56.6365 51.2758C56.6365 53.0486 57.841 54.5258 59.4774 54.969V55.5372C59.4774 56.0827 59.9206 56.5372 60.4774 56.5372C61.0342 56.5372 61.4774 56.094 61.4774 55.5372V54.969C63.1137 54.5258 64.3183 53.0486 64.3183 51.2758C64.3183 49.1622 62.6024 47.4349 60.4774 47.4349C59.4547 47.4349 58.6251 46.6054 58.6251 45.5827C58.6251 44.5599 59.4547 43.7304 60.4774 43.7304Z" fill="#4CA329"/>
<path d="M54.591 50.4805C55.2185 50.4805 55.7273 49.9717 55.7273 49.3441C55.7273 48.7165 55.2185 48.2078 54.591 48.2078C53.9634 48.2078 53.4546 48.7165 53.4546 49.3441C53.4546 49.9717 53.9634 50.4805 54.591 50.4805Z" fill="#4CA329"/>
<path d="M67.091 50.4805C67.7185 50.4805 68.2273 49.9717 68.2273 49.3441C68.2273 48.7165 67.7185 48.2078 67.091 48.2078C66.4634 48.2078 65.9546 48.7165 65.9546 49.3441C65.9546 49.9717 66.4634 50.4805 67.091 50.4805Z" fill="#4CA329"/>
<path d="M60.2728 65.7986C59.7274 65.7986 59.2728 66.2418 59.2728 66.7986V78.8895C59.2728 79.594 58.7047 80.1736 57.9888 80.1736H12.5456C11.841 80.1736 11.2615 79.6054 11.2615 78.8895V74.969C11.2615 74.4236 10.8183 73.969 10.2615 73.969C9.70466 73.969 9.26147 74.4122 9.26147 74.969V78.8895C9.26147 80.6849 10.7274 82.1622 12.5342 82.1622H57.9888C59.7842 82.1622 61.2615 80.6963 61.2615 78.8895V66.7872C61.2728 66.2418 60.8183 65.7986 60.2728 65.7986Z" fill="#4CA329"/>
<path d="M10.2728 71.8896C10.8183 71.8896 11.2728 71.4464 11.2728 70.8896V12.9805C11.2728 12.2759 11.841 11.6964 12.5569 11.6964H58.0115C58.716 11.6964 59.2955 12.2646 59.2955 12.9805V30.0373C59.2955 30.5828 59.7387 31.0373 60.2955 31.0373C60.8524 31.0373 61.2955 30.5941 61.2955 30.0373V12.9805C61.2955 11.1737 59.8296 9.70776 58.0228 9.70776H12.5455C10.7501 9.70776 9.28418 11.1737 9.28418 12.9805V70.8896C9.28418 71.435 9.72736 71.8896 10.2728 71.8896Z" fill="#4CA329"/>
</svg>
