<svg width="48" height="48" viewBox="0 0 48 48" fill="none" xmlns="http://www.w3.org/2000/svg">
<g clip-path="url(#clip0_1_2043)">
<path d="M41.7805 11.6081C42.2302 11.6081 42.6637 11.4297 42.9834 11.1098L47.6961 6.39716C48.3258 5.76745 47.9157 4.6867 47.0285 4.63101L44.5207 4.47361L46.1571 2.8372C46.4317 2.56261 46.4317 2.11739 46.1571 1.84289C45.8824 1.5683 45.4373 1.5683 45.1627 1.84289L43.5263 3.4793L43.3689 0.971488C43.3131 0.0826463 42.2313 -0.324603 41.6027 0.303896L36.89 5.01651C36.5449 5.3616 36.3646 5.83888 36.3952 6.32591L36.5572 8.90666C32.624 5.55304 27.5549 3.62986 22.1851 3.62986C9.92351 3.62986 0 13.5522 0 25.8148C0 31.349 2.04937 36.6495 5.77077 40.7398C6.03224 41.0269 6.47689 41.0479 6.76405 40.7867C7.0513 40.5253 7.0723 40.0806 6.81102 39.7934C3.32568 35.9626 1.40625 30.9982 1.40625 25.8148C1.40625 14.3574 10.7276 5.03601 22.1851 5.03601C27.5543 5.03601 32.6067 7.09382 36.3858 10.6197L33.1775 13.8279C30.276 11.1645 26.4129 9.53469 22.1851 9.53469C13.2082 9.53469 5.90502 16.8379 5.90502 25.8147C5.90502 28.3983 6.52827 30.9716 7.70764 33.2567C7.70773 33.2568 7.70774 33.2569 7.70783 33.257C10.4405 38.552 15.9441 42.0947 22.1851 42.0947C29.8753 42.0947 36.5637 36.663 38.1269 29.1248C38.2058 28.7446 37.9615 28.3724 37.5812 28.2936C37.201 28.2147 36.8289 28.459 36.75 28.8393C35.3261 35.7051 29.2008 40.6885 22.1852 40.6885C16.5969 40.6885 11.5282 37.5937 8.95751 32.6121C8.95751 32.612 8.95742 32.6119 8.95742 32.6118C7.86523 30.4954 7.31136 28.2085 7.31136 25.8147C7.31136 17.6133 13.9837 10.9409 22.1851 10.9409C26.0261 10.9409 29.5378 12.413 32.1835 14.8219L29.0038 18.0016C27.179 16.4071 24.7931 15.4396 22.1851 15.4396C16.4643 15.4396 11.8101 20.0938 11.8101 25.8146C11.8101 31.5354 16.4643 36.1896 22.1851 36.1896C27.9059 36.1896 32.5602 31.5354 32.5602 25.8146C32.5602 23.2067 31.5927 20.8208 29.9982 18.996L33.1781 15.8161C35.5683 18.4405 37.0369 21.9183 37.0586 25.7281C37.0608 26.115 37.3752 26.4272 37.7617 26.4272H37.7658C38.1541 26.4249 38.467 26.1083 38.4649 25.72C38.4409 21.5261 36.8152 17.6999 34.1725 14.8216L37.381 11.6131C40.8916 15.3668 42.9639 20.3891 42.9639 25.8145C42.9638 37.2723 33.6425 46.5936 22.1851 46.5936C17.4386 46.5936 12.7974 44.9517 9.11651 41.9703C8.81454 41.726 8.37214 41.7724 8.12755 42.0741C7.88314 42.3759 7.92964 42.8187 8.23133 43.0631C12.1619 46.2466 17.1174 47.9999 22.1851 47.9999C34.4466 47.9999 44.3701 38.0776 44.3701 25.8148C44.3701 21.0136 42.8613 16.4441 40.007 12.6006C39.7115 12.2026 39.4037 11.8168 39.0856 11.4421C41.8419 11.6153 41.6934 11.6081 41.7805 11.6081ZM31.1539 25.8148C31.1539 30.7602 27.1305 34.7836 22.1851 34.7836C17.2397 34.7836 13.2163 30.7602 13.2163 25.8148C13.2163 20.8694 17.2397 16.8461 22.1851 16.8461C24.4052 16.8461 26.4392 17.6573 28.0071 18.9984L24.8074 22.198C24.0702 21.6621 23.1642 21.3447 22.1851 21.3447C19.7203 21.3447 17.715 23.35 17.715 25.8148C17.715 28.2796 19.7203 30.2849 22.1851 30.2849C24.6499 30.2849 26.6552 28.2796 26.6552 25.8148C26.6552 24.8356 26.3379 23.9296 25.8019 23.1924L29.0016 19.9928C30.3426 21.5606 31.1539 23.5946 31.1539 25.8148ZM21.6878 26.3121C21.9625 26.5867 22.4076 26.5867 22.6822 26.3121L24.7899 24.2044C25.0805 24.6727 25.2489 25.2244 25.2489 25.8149C25.2489 27.5044 23.8744 28.8787 22.185 28.8787C20.4955 28.8787 19.1211 27.5043 19.1211 25.8149C19.1211 24.1255 20.4955 22.7511 22.185 22.7511C22.7755 22.7511 23.3272 22.9194 23.7955 23.21L21.6877 25.3178C21.4132 25.5923 21.4132 26.0375 21.6878 26.3121ZM37.7987 6.23779C37.7934 6.15332 37.8247 6.07054 37.8845 6.01082L42.0168 1.87861L42.2004 4.80511L37.974 9.03153L37.7987 6.23779ZM38.9684 10.0258L43.1949 5.79942L46.1213 5.98307L41.989 10.1154C41.9293 10.1752 41.8459 10.207 41.7621 10.2012L38.9684 10.0258Z" fill="#2C7B78"/>
</g>
<defs>
<clipPath id="clip0_1_2043">
<rect width="48" height="48" fill="white"/>
</clipPath>
</defs>
</svg>
