<svg width="48" height="48" viewBox="0 0 48 48" fill="none" xmlns="http://www.w3.org/2000/svg">
<path d="M14.1179 6.43793L16.675 8.49322L15.8144 11.659C15.7026 12.0699 15.853 12.4972 16.1976 12.7475C16.3768 12.8777 16.5854 12.9432 16.7944 12.9432C16.9871 12.9432 17.1803 12.8875 17.3511 12.7755L20.0961 10.9787L22.841 12.7755C23.1972 13.0088 23.6501 12.9977 23.9946 12.7474C24.3392 12.4971 24.4896 12.0698 24.3779 11.6589L23.5172 8.49312L26.0743 6.43784C26.4063 6.17103 26.5357 5.73697 26.4041 5.33197C26.2726 4.92697 25.9127 4.65181 25.4873 4.63109L22.2105 4.47134L21.0459 1.4044C20.8951 1.0069 20.5223 0.750122 20.0962 0.750122C19.6701 0.750122 19.2972 1.007 19.1463 1.4045L17.9818 4.47153L14.705 4.63128C14.2796 4.652 13.9198 4.92706 13.7882 5.33215C13.6566 5.73706 13.7859 6.17112 14.1179 6.43793ZM18.3709 5.95428C18.7746 5.93478 19.1281 5.678 19.2716 5.3L20.0961 3.12847L20.9204 5.29981C21.0638 5.67781 21.4174 5.93468 21.8209 5.95418L24.141 6.06725L22.3307 7.52253C22.0158 7.77556 21.8807 8.19097 21.9866 8.58115L22.596 10.8226L20.6526 9.55053C20.4835 9.43981 20.2898 9.3845 20.0961 9.3845C19.9024 9.3845 19.7086 9.43981 19.5396 9.55053L17.5962 10.8227L18.2056 8.58134C18.3116 8.19134 18.1766 7.77584 17.8617 7.52281L16.0512 6.06762L18.3709 5.95428ZM7.71834 15.7394L10.4631 17.5362C10.8195 17.7695 11.2723 17.7586 11.6168 17.5082C11.9614 17.2579 12.1118 16.8307 12.0001 16.4197L11.1394 13.2538L13.6965 11.1986C14.0284 10.9317 14.1577 10.4977 14.0262 10.0927C13.8946 9.68768 13.5347 9.41262 13.1094 9.3919L9.83259 9.23215L8.66821 6.16503C8.51737 5.76762 8.14462 5.51075 7.71852 5.51075C7.29243 5.51075 6.91949 5.76762 6.76855 6.16512L5.60399 9.23225L2.32715 9.392C1.9018 9.41271 1.54199 9.68778 1.41037 10.0929C1.27874 10.498 1.40821 10.932 1.74018 11.1987L4.29721 13.254L3.43659 16.4198C3.32484 16.8307 3.47521 17.2579 3.81974 17.5083C3.99899 17.6385 4.20749 17.704 4.41655 17.704C4.6093 17.704 4.80252 17.6483 4.97334 17.5363L7.71834 15.7394ZM3.6734 10.8281L5.99352 10.7149C6.39721 10.6953 6.75065 10.4383 6.8939 10.0607L7.71834 7.88918L8.54287 10.0608C8.6863 10.4385 9.03974 10.6953 9.44324 10.7149L11.7634 10.8281L9.95296 12.2832C9.63796 12.5363 9.50296 12.9518 9.60899 13.3417L10.2184 15.5831L8.27484 14.3108C8.1059 14.2002 7.91221 14.1449 7.71852 14.1449C7.52484 14.1449 7.33105 14.2002 7.16202 14.3109L5.21859 15.5831L5.82796 13.3417C5.93399 12.9516 5.7989 12.536 5.48409 12.2832L3.6734 10.8281ZM26.1659 10.0927C26.0343 10.4977 26.1637 10.9318 26.4956 11.1987L29.0527 13.2539L28.1921 16.4197C28.0804 16.8306 28.2307 17.2578 28.5753 17.5082C28.7545 17.6384 28.963 17.7039 29.1721 17.7039C29.3648 17.7039 29.5581 17.6482 29.729 17.5362L32.4738 15.7393L35.2186 17.5362C35.5748 17.7694 36.0276 17.7584 36.3722 17.5082C36.7167 17.258 36.8673 16.8307 36.7556 16.4196L35.8949 13.2538L38.452 11.1986C38.784 10.9317 38.9133 10.4977 38.7817 10.0927C38.6501 9.68768 38.2903 9.41262 37.8651 9.3919L34.5882 9.23215L33.4237 6.16522C33.2729 5.76762 32.9001 5.51075 32.4739 5.51075C32.0477 5.51075 31.6748 5.76762 31.524 6.16503L30.3594 9.23215L27.0827 9.3919C26.6574 9.41262 26.2975 9.68768 26.1659 10.0927ZM30.749 10.715C31.1527 10.6954 31.5061 10.4385 31.6493 10.0608L32.4738 7.88918L33.2982 10.0605C33.4416 10.4384 33.795 10.6953 34.1987 10.7149L36.5187 10.8281L34.7082 12.2832C34.3933 12.5364 34.2583 12.9519 34.3643 13.3417L34.9737 15.5831L33.0302 14.3108C32.8612 14.2002 32.6676 14.1449 32.4739 14.1449C32.2802 14.1449 32.0864 14.2002 31.9173 14.3109L29.9739 15.5831L30.5833 13.3417C30.6893 12.9517 30.5542 12.5362 30.2394 12.2832L28.4289 10.828L30.749 10.715ZM37.7181 29.4051C34.9108 29.4051 32.4027 30.7087 30.7659 32.7418C28.8648 30.8887 26.519 29.5711 23.9806 28.9016C26.4889 27.5242 28.1931 24.8574 28.1931 21.7994C28.1931 17.3348 24.5608 13.7025 20.0961 13.7025C15.6315 13.7025 11.9991 17.3348 11.9991 21.7994C11.9991 24.8551 13.701 27.5201 16.2063 28.8984C13.8609 29.5145 11.6807 30.6851 9.85058 32.3401C7.0589 34.8647 5.30184 38.3075 4.90312 42.0341C4.88043 42.2457 4.94877 42.457 5.09099 42.6152C5.23321 42.7735 5.43599 42.8638 5.6488 42.8638L30.0377 42.8637C31.5931 45.4872 34.4533 47.2499 37.718 47.2499C42.6379 47.2499 46.6404 43.2474 46.6404 38.3275C46.6404 33.4076 42.638 29.4051 37.7181 29.4051ZM13.4992 21.7994C13.4992 18.1618 16.4586 15.2025 20.0962 15.2025C23.7338 15.2025 26.6932 18.1618 26.6932 21.7994C26.6932 25.4366 23.7345 28.3958 20.0975 28.3963C20.0971 28.3963 20.0966 28.3963 20.0962 28.3963C20.0959 28.3963 20.0954 28.3963 20.095 28.3963C16.458 28.3957 13.4992 25.4366 13.4992 21.7994ZM6.50859 41.3639C7.61615 34.7705 13.316 29.897 20.095 29.8964H20.0962H20.0974C23.785 29.8967 27.3307 31.3896 29.9128 34.009C29.2015 35.2894 28.7956 36.7619 28.7956 38.3276C28.7956 39.3932 28.9837 40.4157 29.3278 41.3639H6.50859ZM37.7181 45.75C33.6253 45.75 30.2956 42.4203 30.2956 38.3276C30.2956 34.2348 33.6253 30.9051 37.7181 30.9051C41.8108 30.9051 45.1405 34.2348 45.1405 38.3276C45.1405 42.4203 41.8108 45.75 37.7181 45.75ZM42.8589 34.4979C42.487 34.1281 41.9914 33.9264 41.4688 33.9275C40.945 33.9295 40.4538 34.1354 40.0856 34.5072L36.6422 37.9852L35.349 36.692C34.5839 35.9271 33.3392 35.927 32.574 36.6921C31.8091 37.4571 31.8091 38.7019 32.574 39.4671L35.2598 42.1528C35.6423 42.5353 36.1447 42.7265 36.6472 42.7265C37.1497 42.7265 37.6521 42.5352 38.0346 42.1527C39.0541 41.1334 40.0822 40.0905 41.0765 39.082C41.6731 38.4768 42.2698 37.8716 42.8679 37.2679C43.628 36.501 43.6238 35.2584 42.8589 34.4979ZM41.8025 36.2121C41.2034 36.8167 40.6059 37.4228 40.0084 38.0289C39.0159 39.0355 37.9897 40.0765 36.9741 41.0921C36.794 41.2722 36.5006 41.2722 36.3204 41.0921L33.6347 38.4064C33.4545 38.2261 33.4545 37.9329 33.6347 37.7527C33.7248 37.6626 33.8432 37.6176 33.9615 37.6176C34.0798 37.6176 34.1982 37.6626 34.2883 37.7527L36.1144 39.5788C36.255 39.7195 36.4458 39.7985 36.6447 39.7985H36.6466C36.8461 39.798 37.0372 39.7181 37.1777 39.5762L41.1515 35.5627C41.2373 35.476 41.3521 35.428 41.4745 35.4275C41.5987 35.4229 41.7138 35.4745 41.8011 35.5615C41.9807 35.7399 41.9812 36.0318 41.8025 36.2121Z" fill="#2C7B78"/>
</svg>
