<svg width="48" height="48" viewBox="0 0 48 48" fill="none" xmlns="http://www.w3.org/2000/svg">
<path d="M11.25 1.49902C9.26041 1.49902 7.31862 2.10798 5.68505 3.2436C4.83451 3.80849 5.71396 5.07518 6.54051 4.47554C7.92291 3.51454 9.56639 2.99896 11.25 2.99896C15.8152 2.99896 19.5 6.68377 19.5 11.249C19.5 15.8142 15.8152 19.499 11.25 19.499C6.68474 19.499 2.99998 15.8142 2.99998 11.249C2.99998 9.56491 3.51504 7.92065 4.47655 6.53803C5.07597 5.71162 3.80953 4.83223 3.24461 5.68257C2.10838 7.31645 1.49998 9.25888 1.49998 11.249C1.49998 16.6249 5.87409 20.999 11.25 20.999C16.6259 20.999 21 16.6249 21 11.249C21 5.87309 16.6259 1.49902 11.25 1.49902ZM11.25 4.49016C10.8749 4.49016 10.5 4.73991 10.5 5.24017V6.10299C9.21282 6.43957 8.25292 7.60877 8.25292 8.99749C8.25292 10.6455 9.59907 11.9975 11.247 11.9975C12.0844 11.9975 12.7471 12.6602 12.7471 13.4975C12.7471 14.3348 12.0844 14.999 11.247 14.999C10.4097 14.999 9.7529 14.3348 9.7529 13.4975C9.77558 12.4748 8.22996 12.4748 8.25292 13.4975C8.25292 14.8862 9.21282 16.0555 10.5 16.3921V17.2461C10.5 18.2463 12 18.2463 12 17.2461V16.3906C13.2856 16.0521 14.2485 14.8842 14.2485 13.4975C14.2485 11.8495 12.895 10.4975 11.247 10.4975C10.4097 10.4975 9.7529 9.83485 9.7529 8.99749C9.7529 8.16017 10.4097 7.496 11.247 7.496C12.0844 7.496 12.7471 8.16017 12.7471 8.99749C12.7471 9.99849 14.2485 9.99849 14.2485 8.99749C14.2485 7.61076 13.2856 6.44297 12 6.10446V5.24017C12 4.74005 11.6251 4.49016 11.25 4.49016ZM36.7485 5.99606H41.0391C39.2289 8.2881 24.4246 26.249 4.49852 26.249C3.47606 26.2263 3.47606 27.7717 4.49852 27.749C24.441 27.749 39.1608 10.7351 42.0029 7.20456V11.2505C42.0256 12.2283 43.481 12.2283 43.5029 11.2505V5.24899C43.5014 4.8348 43.1642 4.50037 42.75 4.50192H36.7126C35.7567 4.61644 35.8216 5.97044 36.7485 5.99606ZM2.24999 46.5004H45.75C46.7723 46.5231 46.7723 44.9778 45.75 45.0005H43.5029V26.249C43.5086 25.8259 43.1613 25.4823 42.7383 25.4901C42.3261 25.4986 41.9982 25.8367 42.0029 26.249V45.0005H37.5014V21.0004H42.0029V23.2475C42.0029 24.2478 43.5029 24.2478 43.5029 23.2475V20.2475C43.5014 19.8332 43.1643 19.4988 42.75 19.5004H36.7485C36.3363 19.5019 36.0014 19.8353 36 20.2475V45.0005H33V26.249C32.9985 25.837 32.6648 25.5035 32.2529 25.5019H26.2126C25.7902 25.5405 25.4981 25.8634 25.4985 26.249V45.0005H22.497V32.2504C22.4985 31.8362 22.1642 31.4992 21.75 31.4975H15.7485C15.3343 31.499 14.9999 31.8362 15.0015 32.2504V45.0005H12V38.2519C12.0015 37.8354 11.6635 37.4974 11.247 37.499H5.25143C4.83496 37.4975 4.49693 37.8354 4.49852 38.2519V45.0005H2.2119C1.19878 45.0736 1.27268 46.5265 2.24999 46.5004ZM26.9985 27.0019H31.5V45.0005H26.9985V27.0019ZM16.5015 32.9975H21.0029V45.0005H16.5015V32.9975ZM5.99853 38.999H10.5V45.0005H5.99853V38.999Z" fill="#2C7B78"/>
</svg>
