<svg width="48" height="48" viewBox="0 0 48 48" fill="none" xmlns="http://www.w3.org/2000/svg">
<path d="M42 26.1751V24.6751C42.414 24.6751 42.75 24.3393 42.75 23.9251V19.4251C42.75 19.0108 42.414 18.6751 42 18.6751H37.95L37.8047 18.1117C37.4731 16.8232 36.958 15.5889 36.2745 14.4472L35.9745 13.9454L38.85 11.0649C39.1395 10.7749 39.1395 10.3049 38.85 10.0149L35.6648 6.82505C35.3707 6.54468 34.9087 6.54468 34.6146 6.82505L31.7338 9.70581L31.2322 9.40581C30.0888 8.72202 28.8533 8.20698 27.5631 7.87505L27 7.72857V3.67505C27 3.26079 26.6643 2.92505 26.25 2.92505H21.75C21.3357 2.92505 21 3.26079 21 3.67505V7.72505L20.4366 7.87066C19.1481 8.202 17.9139 8.71704 16.7716 9.39966L16.2697 9.69995L13.3898 6.82505C13.0954 6.54233 12.6305 6.54233 12.336 6.82505L9.15 10.0102C9.00996 10.15 8.93115 10.3398 8.93115 10.5375C8.93115 10.7356 9.00996 10.9251 9.15 11.0649L12.0308 13.9454L11.7308 14.4472C11.0476 15.5889 10.5322 16.8232 10.2009 18.1117L10.0538 18.6751H6C5.58574 18.6751 5.25 19.0108 5.25 19.4251V23.9251C5.25 24.3393 5.58574 24.6751 6 24.6751V26.1751C4.75752 26.1751 3.75 25.1675 3.75 23.9251V19.4251C3.75 18.1826 4.75752 17.1751 6 17.1751H8.90186C9.21123 16.1379 9.62959 15.1366 10.1499 14.1879L8.0874 12.1254C7.66553 11.7044 7.42852 11.1332 7.42852 10.5375C7.42852 9.94194 7.66553 9.37066 8.0874 8.94995L11.2749 5.76245C12.1629 4.91255 13.563 4.91255 14.451 5.76245L16.5129 7.82407C17.4615 7.30405 18.4632 6.88657 19.5 6.57749V3.67505C19.5 2.43257 20.5075 1.42505 21.75 1.42505H26.25C27.4925 1.42505 28.5 2.43257 28.5 3.67505V6.57749C29.5371 6.88657 30.5382 7.30493 31.4871 7.82495L33.5496 5.76245C34.4379 4.91255 35.8377 4.91255 36.726 5.76245L39.9129 8.94907C40.3345 9.37007 40.5712 9.94077 40.5712 10.5367C40.5712 11.1326 40.3345 11.7039 39.9129 12.1246L37.8504 14.1871C38.3704 15.1363 38.7885 16.1379 39.0981 17.1751H42C43.2425 17.1751 44.25 18.1826 44.25 19.4251V23.9251C44.25 25.1675 43.2425 26.1751 42 26.1751Z" fill="#2C7B78"/>
<path d="M34.5 21.6751H33C33 16.7045 28.9705 12.675 24 12.675C19.0295 12.675 15 16.7045 15 21.6751H13.5C13.5 15.876 18.201 11.175 24 11.175C29.7987 11.175 34.5 15.876 34.5 21.6751Z" fill="#2C7B78"/>
<path d="M24 27.6751C21.5147 27.6751 19.5 25.66 19.5 23.175C19.5 20.6898 21.5147 18.675 24 18.675C26.4855 18.675 28.5 20.6898 28.5 23.175C28.4974 25.6594 26.4844 27.6724 24 27.6751ZM24 20.175C22.3433 20.175 21 21.5183 21 23.175C21 24.8318 22.3433 26.1751 24 26.1751C25.6567 26.1751 27 24.8318 27 23.175C27 21.5183 25.6567 20.175 24 20.175Z" fill="#2C7B78"/>
<path d="M36.75 30.6751C34.2647 30.6751 32.25 28.66 32.25 26.175C32.25 23.6898 34.2647 21.675 36.75 21.675C39.2353 21.675 41.25 23.6898 41.25 26.175C41.2474 28.6594 39.2344 30.6724 36.75 30.6751ZM36.75 23.175C35.0933 23.175 33.75 24.5183 33.75 26.175C33.75 27.8318 35.0933 29.1751 36.75 29.1751C38.4067 29.1751 39.75 27.8318 39.75 26.175C39.75 24.5183 38.4067 23.175 36.75 23.175Z" fill="#2C7B78"/>
<path d="M11.25 30.6751C8.76475 30.6751 6.75 28.66 6.75 26.175C6.75 23.6898 8.76475 21.675 11.25 21.675C13.7355 21.675 15.75 23.6898 15.75 26.175C15.7474 28.6594 13.7344 30.6724 11.25 30.6751ZM11.25 23.175C9.59326 23.175 8.25 24.5183 8.25 26.175C8.25 27.8318 9.59326 29.1751 11.25 29.1751C12.9067 29.1751 14.25 27.8318 14.25 26.175C14.25 24.5183 12.9067 23.175 11.25 23.175Z" fill="#2C7B78"/>
<path d="M43.5492 32.5992C42.4315 31.831 41.1064 31.4212 39.75 31.425H33.75C33.3853 31.4282 33.0211 31.4613 32.6616 31.5237C32.1817 30.7731 31.5574 30.1257 30.825 29.6179C30.7151 29.535 30.5997 29.4597 30.4793 29.3932C29.4302 28.7578 28.2264 28.4232 27 28.425H21C18.7064 28.4168 16.5691 29.5872 15.3404 31.5237C14.9801 31.4613 14.6153 31.4282 14.25 31.425H8.25C6.89473 31.4212 5.56992 31.8304 4.45283 32.5977C2.60654 33.854 1.50117 35.942 1.5 38.175V41.175C1.50264 43.2228 2.69414 45.0826 4.5542 45.9404C5.24092 46.2638 5.99121 46.4294 6.75 46.425H14.25V44.925H7.5V36.675H6V44.8497C5.71758 44.7931 5.44336 44.7017 5.1832 44.5784C3.85459 43.9658 3.00293 42.6378 3 41.175V38.175C3.00176 36.4371 3.86279 34.8126 5.29951 33.8352C6.16758 33.2393 7.19678 32.922 8.25 32.925H14.25C14.3821 32.925 14.5096 32.939 14.6385 32.9478C14.3848 33.6633 14.2532 34.4162 14.25 35.175V42.675C14.2526 44.7451 15.9302 46.4223 18 46.425H20.25V34.425H18.75V44.925H18C16.7575 44.925 15.75 43.9175 15.75 42.675V35.175C15.75 32.2752 18.1008 29.925 21 29.925H27C27.965 29.9256 28.9107 30.1927 29.7337 30.6966C29.8099 30.7383 29.8831 30.7851 29.9525 30.8367C30.6554 31.318 31.2322 31.9611 31.6342 32.7117C32.0382 33.4699 32.25 34.3157 32.25 35.175V42.675C32.25 43.9175 31.2425 44.925 30 44.925H29.25V34.425H27.75V46.425H30C32.0701 46.4223 33.7474 44.7451 33.75 42.675V35.175C33.7465 34.4162 33.6155 33.6635 33.3621 32.9478C33.4913 32.939 33.6188 32.925 33.75 32.925H39.75C40.8038 32.922 41.8339 33.2402 42.7025 33.8367C44.1381 34.8146 44.998 36.438 45 38.175V41.175C44.9974 42.643 44.1393 43.9749 42.8042 44.5842C42.5479 44.7055 42.2777 44.7946 42 44.8497V36.675H40.5V44.925H33.75V46.425H41.25C42.0044 46.4297 42.7503 46.2662 43.4332 45.9463C45.2994 45.0911 46.4971 43.2278 46.5 41.175V38.175C46.4988 35.9428 45.3943 33.8557 43.5492 32.5992Z" fill="#2C7B78"/>
<path d="M21 44.925H27V46.425H21V44.925Z" fill="#2C7B78"/>
</svg>
