<svg width="93" height="94" viewBox="0 0 93 94" fill="none" xmlns="http://www.w3.org/2000/svg">
<rect y="0.435059" width="93" height="93" rx="10" fill="#E31D1C" fill-opacity="0.3"/>
<path d="M23.11 61.1734C23.11 60.6071 23.569 60.148 24.1354 60.148H48.9255C49.4918 60.148 49.9509 60.6071 49.9509 61.1734C49.9509 61.7397 49.4918 62.1988 48.9255 62.1988H24.1354C23.569 62.1988 23.11 61.7397 23.11 61.1734ZM24.1354 54.5969H42.2452C42.8115 54.5969 43.2706 54.1378 43.2706 53.5715C43.2706 53.0052 42.8115 52.5461 42.2452 52.5461H24.1354C23.569 52.5461 23.11 53.0052 23.11 53.5715C23.11 54.1378 23.569 54.5969 24.1354 54.5969ZM66.1062 69.5745V81.7415C66.1062 83.0513 65.0407 84.1169 63.7308 84.1169H47.3878C46.078 84.1169 45.0125 83.0513 45.0125 81.7415V74.3118C42.2917 74.9439 39.445 75.2647 36.5304 75.2647C35.3222 75.2647 34.1079 75.2081 32.9149 75.0965L20.2501 83.9326C20.0739 84.0555 19.8687 84.117 19.6635 84.117C19.4629 84.117 19.2625 84.0584 19.0888 83.9408C18.7374 83.7029 18.5687 83.2731 18.6646 82.8597L21.2071 71.9068C14.3716 68.5535 10.3184 63.1672 10.3184 57.3725C10.3184 53.3983 12.1699 49.6419 15.6728 46.5093C19.0241 43.5124 23.5844 41.3497 28.8609 40.2552C29.4154 40.1405 29.9583 40.4964 30.0732 41.0509C30.1882 41.6055 29.832 42.1482 29.2775 42.2632C24.4245 43.2698 20.0783 45.3208 17.0399 48.0379C13.9843 50.7706 12.3691 53.9983 12.3691 57.3725C12.3691 62.5526 16.2751 67.4226 22.8177 70.3996C23.2622 70.6018 23.5022 71.0893 23.3918 71.5648L21.2659 80.7231L32.0521 73.1976C32.2541 73.0567 32.4998 72.9936 32.7448 73.0186C33.9898 73.148 35.2633 73.2136 36.5304 73.2136C39.4554 73.2136 42.3044 72.8729 45.0125 72.2023V69.5743C45.0125 68.2645 46.078 67.1989 47.3878 67.1989H55.448C58.8322 64.4034 60.6917 60.9256 60.6917 57.3723C60.6917 53.5757 58.588 49.8952 54.7682 47.0087C54.3164 46.6672 54.2269 46.0243 54.5682 45.5724C54.9097 45.1207 55.5526 45.0312 56.0045 45.3726C60.3495 48.6559 62.7425 52.9174 62.7425 57.3723C62.7425 60.8871 61.2388 64.3025 58.4606 67.1989H63.7307C65.0405 67.1989 66.1062 68.2646 66.1062 69.5745ZM64.0554 69.5745C64.0554 69.3985 63.9067 69.2499 63.7308 69.2499H47.3878C47.2119 69.2499 47.0632 69.3985 47.0632 69.5745V81.7415C47.0632 81.9174 47.2119 82.0661 47.3878 82.0661H63.7308C63.9067 82.0661 64.0554 81.9174 64.0554 81.7415V69.5745ZM59.5103 75.6578C59.5103 76.0242 59.3149 76.3627 58.9976 76.5458L53.1464 79.9239C52.9878 80.0154 52.8107 80.0613 52.6337 80.0613C52.4568 80.0613 52.2797 80.0156 52.121 79.9239C51.8038 79.7408 51.6083 79.4023 51.6083 79.0359V72.2796C51.6083 71.9132 51.8038 71.5747 52.121 71.3916C52.4383 71.2084 52.8291 71.2084 53.1464 71.3916L58.9976 74.7698C59.3149 74.9531 59.5103 75.2915 59.5103 75.6578ZM56.4341 75.6578L53.6591 74.0557V77.2599L56.4341 75.6578ZM75.9895 22.4707C76.1635 22.4707 76.3397 22.4264 76.5013 22.3331L80.4615 20.0468C80.952 19.7636 81.12 19.1365 80.8368 18.6461C80.5538 18.1557 79.9269 17.9877 79.4361 18.2708L75.4759 20.5571C74.9855 20.8403 74.8175 21.4674 75.1006 21.9578C75.2905 22.2867 75.6352 22.4707 75.9895 22.4707ZM69.3888 17.8444C69.5503 17.9377 69.7266 17.9819 69.9006 17.9819C70.2549 17.9819 70.5996 17.7981 70.7895 17.4691L73.2013 13.2917C73.4845 12.8012 73.3165 12.1741 72.826 11.891C72.3356 11.6078 71.7085 11.7758 71.4253 12.2663L69.0135 16.4437C68.7303 16.9341 68.8983 17.5612 69.3888 17.8444ZM75.8071 28.9611C75.8071 29.5274 76.2662 29.9865 76.8325 29.9865H81.6562C82.2226 29.9865 82.6816 29.5274 82.6816 28.9611C82.6816 28.3948 82.2226 27.9357 81.6562 27.9357H76.8325C76.2662 27.9357 75.8071 28.3948 75.8071 28.9611ZM32.365 40.2143C32.9102 38.1792 34.2091 36.482 36.0226 35.4351L41.3859 32.3386C41.6213 32.2025 41.9014 32.1656 42.1641 32.236C42.2678 32.2639 42.365 32.308 42.4537 32.3649C47.9656 28.2398 52.3118 23.4641 54.8016 18.7898L54.7072 18.6265C53.5453 16.6141 54.2373 14.0315 56.2497 12.8695C58.2624 11.7077 60.8448 12.3997 62.0067 14.412L66.1909 21.6591C68.4133 20.5094 71.1788 21.3029 72.4427 23.4922C73.7065 25.6814 73.011 28.4727 70.9043 29.823L75.0885 37.0702C75.6497 38.0421 75.7978 39.1773 75.5058 40.2672C75.2137 41.3569 74.5178 42.2661 73.5458 42.8273C72.8997 43.2004 72.1813 43.391 71.4521 43.391C71.0845 43.391 70.7142 43.3425 70.349 43.2446C69.2593 42.9527 68.35 42.2566 67.789 41.2848L67.6947 41.1215C62.4482 40.9419 56.2021 42.2926 49.9289 44.957L57.3325 54.9227C58.0714 55.9173 57.9417 57.2906 57.0309 58.117L55.4021 59.5951C54.9609 59.9953 54.3857 60.2151 53.7955 60.2151C53.7196 60.2151 53.6436 60.2115 53.5676 60.2042C52.9074 60.1404 52.3017 59.8 51.9059 59.27L44.1604 48.9057L43.8901 49.0617C42.6848 49.7575 41.3443 50.113 39.9833 50.113C39.2966 50.113 38.6048 50.0225 37.9223 49.8397C35.8872 49.2944 34.19 47.9954 33.1431 46.1821C32.096 44.3686 31.8198 42.2493 32.365 40.2143ZM55.6862 56.1455L48.4623 46.4217L45.9488 47.873L53.5487 58.0425C53.6149 58.1313 53.7026 58.1569 53.7646 58.1629C53.8201 58.1682 53.9272 58.1641 54.024 58.0762L55.6526 56.5983C55.7807 56.4821 55.7949 56.2917 55.6862 56.1455ZM67.219 23.4401L69.8761 28.0422C71.0041 27.2604 71.365 25.7272 70.6667 24.5176C69.9684 23.3083 68.4601 22.8542 67.219 23.4401ZM56.4832 17.6011L69.5648 40.2593C69.8521 40.7567 70.3189 41.1134 70.8797 41.2636C71.4403 41.4136 72.0229 41.3384 72.5205 41.0512C73.0179 40.7641 73.3746 40.2971 73.5249 39.7365C73.675 39.1759 73.5996 38.5932 73.3125 38.0957L60.2307 15.4375C59.8305 14.7442 59.1016 14.3562 58.3534 14.3562C57.9866 14.3562 57.6151 14.4493 57.2752 14.6456C56.7778 14.9327 56.4211 15.3997 56.2709 15.9603C56.1208 16.5209 56.1961 17.1036 56.4832 17.6011ZM43.5782 34.0848L48.837 43.1935C54.9873 40.5439 61.1569 39.1032 66.5027 39.0571L55.9934 20.8539C53.2806 25.4604 48.948 30.0833 43.5782 34.0848ZM34.9189 45.1565C35.6919 46.4956 36.947 47.4552 38.4529 47.8586C39.9586 48.2622 41.5254 48.0585 42.8644 47.2855L47.3398 44.7017L41.5232 34.6271L37.0478 37.2109C35.7088 37.9839 34.7493 39.239 34.3458 40.7449C33.9422 42.2507 34.1459 43.8177 34.9189 45.1565ZM15.9438 23.6072C15.9438 20.1731 18.7377 17.379 22.172 17.379C25.6063 17.379 28.4002 20.1729 28.4002 23.6072C28.4002 27.0414 25.6063 29.8353 22.172 29.8353C18.7377 29.8353 15.9438 27.0414 15.9438 23.6072ZM17.9946 23.6072C17.9946 25.9107 19.8686 27.7845 22.172 27.7845C24.4755 27.7845 26.3495 25.9107 26.3495 23.6072C26.3495 21.3038 24.4755 19.4298 22.172 19.4298C19.8686 19.4298 17.9946 21.3038 17.9946 23.6072ZM10.3184 24.69V22.5244C10.3184 21.5667 11.0974 20.7877 12.0549 20.7877C12.9031 20.7877 13.2376 20.1394 13.3198 19.9406C13.4021 19.7418 13.6242 19.0467 13.0244 18.447C12.6964 18.1192 12.5156 17.6831 12.5156 17.219C12.5156 16.7551 12.6962 16.3189 13.0244 15.9909L14.5556 14.4596C15.2326 13.7824 16.3345 13.7824 17.0117 14.4596C17.6115 15.0594 18.3066 14.8374 18.5052 14.755C18.704 14.6727 19.3523 14.3383 19.3523 13.4901C19.3523 12.5324 20.1313 11.7534 21.0889 11.7534H23.2545C24.2121 11.7534 24.9911 12.5324 24.9911 13.4901C24.9911 14.3383 25.6395 14.6727 25.8382 14.755C26.0369 14.8374 26.7322 15.0591 27.3318 14.4596C28.009 13.7824 29.1107 13.7824 29.7879 14.4596L31.3192 15.9909C31.6472 16.3189 31.8278 16.755 31.8278 17.2189C31.8278 17.6828 31.6472 18.119 31.3191 18.447C30.7194 19.0467 30.9415 19.7418 31.0238 19.9406C31.1061 20.1392 31.4405 20.7877 32.2887 20.7877C33.2462 20.7877 34.0252 21.5667 34.0252 22.5244V24.69C34.0252 25.6476 33.2462 26.4266 32.2887 26.4266C31.4405 26.4266 31.106 27.075 31.0238 27.2737C30.9415 27.4724 30.7194 28.1676 31.3192 28.7673C31.9964 29.4445 31.9964 30.5463 31.3192 31.2234L29.7879 32.7547C29.4601 33.0827 29.0238 33.2635 28.5599 33.2635C28.096 33.2635 27.6598 33.0829 27.3318 32.7547C26.7321 32.1552 26.0372 32.377 25.8382 32.4594C25.6396 32.5418 24.9911 32.8762 24.9911 33.7245C24.9911 34.682 24.2121 35.461 23.2545 35.461H21.0892C20.1316 35.461 19.3526 34.682 19.3526 33.7245C19.3526 32.8744 18.7047 32.54 18.5063 32.4578C18.3075 32.3755 17.613 32.1537 17.012 32.7549C16.6841 33.0829 16.2479 33.2636 15.784 33.2636C15.3201 33.2636 14.8837 33.083 14.5559 32.7549L13.0247 31.2237C12.6967 30.8959 12.5159 30.4596 12.5159 29.9956C12.5159 29.5316 12.6965 29.0954 13.0247 28.7674C13.6244 28.1677 13.4023 27.4727 13.32 27.274C13.2376 27.0752 12.9032 26.4269 12.0551 26.4269C11.0974 26.4266 10.3184 25.6476 10.3184 24.69ZM12.3691 24.3895C13.6422 24.5003 14.7154 25.2835 15.2146 26.489C15.714 27.6946 15.5089 29.0072 14.687 29.9859L15.7934 31.0923C16.7728 30.2695 18.0857 30.064 19.2908 30.563C20.4961 31.0623 21.2789 32.136 21.3896 33.4104H22.9541C23.065 32.1373 23.8481 31.0642 25.0537 30.5648C26.2591 30.0657 27.5717 30.2705 28.5505 31.0923L29.6569 29.9859C28.835 29.0072 28.6301 27.6946 29.1293 26.489C29.6287 25.2836 30.7017 24.5003 31.9748 24.3895V22.825C30.7017 22.7141 29.6285 21.931 29.1293 20.7254C28.6301 19.5199 28.835 18.2074 29.6568 17.2286L28.5504 16.1222C27.5714 16.9439 26.2589 17.1489 25.0535 16.6497C23.8481 16.1503 23.065 15.0773 22.9541 13.8042H21.3896C21.2788 15.0773 20.4957 16.1504 19.2902 16.6497C18.0847 17.149 16.772 16.9439 15.7934 16.122L14.687 17.2284C15.5087 18.2074 15.7138 19.5199 15.2145 20.7253C14.7154 21.931 13.6422 22.7141 12.3691 22.825V24.3895ZM82.6011 51.6517C82.2391 54.688 80.7791 57.5765 79.9409 59.028C79.1027 60.4795 77.3314 63.1882 74.883 65.0198C73.2955 66.2074 71.6969 66.8047 70.148 66.8047C69.0664 66.8047 68.0087 66.5135 66.9958 65.9286L66.6275 65.7159C66.0208 65.3657 65.5868 64.7992 65.4048 64.1206C65.223 63.442 65.3158 62.7344 65.666 62.1278L67.1383 59.5776C67.8624 58.3233 69.4721 57.892 70.7265 58.6161L71.5901 59.1147C71.8349 59.2563 72.1247 59.2084 72.3113 58.9958C73.1165 58.0776 73.8582 57.0347 74.5157 55.8958C75.1733 54.7568 75.7058 53.5929 76.0982 52.4367C76.189 52.1689 76.0856 51.894 75.8408 51.7526L74.9771 51.2541C74.3704 50.9039 73.9364 50.3373 73.7544 49.6587C73.5727 48.9802 73.6654 48.2724 74.0156 47.6658L75.4879 45.1157C76.2119 43.8615 77.8216 43.4302 79.0761 44.1542L79.4445 44.3669C81.9082 45.7892 82.9997 48.3082 82.6011 51.6517ZM78.4191 46.1428L78.0508 45.9301C77.7759 45.7713 77.4227 45.866 77.2641 46.1409L75.7917 48.6911C75.7154 48.8233 75.6954 48.9783 75.7355 49.1277C75.7755 49.2772 75.8704 49.4015 76.0027 49.4778L76.8664 49.9763C77.9654 50.611 78.4482 51.8937 78.0403 53.0956C77.6048 54.3788 77.0165 55.6658 76.2918 56.921C75.5673 58.1759 74.7467 59.3289 73.8532 60.348C73.0162 61.3025 71.6641 61.5254 70.5649 60.8909L69.7012 60.3924C69.6108 60.3402 69.512 60.3153 69.4143 60.3153C69.215 60.3153 69.021 60.4186 68.9143 60.6032L67.442 63.1533C67.3657 63.2856 67.3456 63.4406 67.3857 63.59C67.4257 63.7394 67.5207 63.8638 67.6529 63.9401L68.0212 64.1528C69.7674 65.1609 71.6101 64.9073 73.6545 63.3777C75.8902 61.7053 77.5535 59.0617 78.1651 58.0026C78.7765 56.9437 80.2343 54.1812 80.5648 51.4089C80.867 48.8734 80.1652 47.1509 78.4191 46.1428Z" fill="#E31D1C"/>
</svg>
