<svg width="93" height="94" viewBox="0 0 93 94" fill="none" xmlns="http://www.w3.org/2000/svg">
<rect y="0.435059" width="93" height="93" rx="10" fill="#E8965A" fill-opacity="0.3"/>
<path d="M24.4821 22.3647H22.1643C20.9323 22.3647 19.93 23.4018 19.93 24.6767V37.3535H17.5289C16.9349 37.3535 16.4534 37.8516 16.4534 38.4664C16.4534 39.0811 16.9349 39.5792 17.5289 39.5792H47.6593C48.2533 39.5792 48.7348 39.0811 48.7348 38.4664C48.7348 37.8516 48.2533 37.3535 47.6593 37.3535H45.2582V22.2785C45.2582 21.0036 44.2559 19.9666 43.0238 19.9666H40.706C39.474 19.9666 38.4717 21.0036 38.4717 22.2785V37.3535H35.9872V29.1734C35.9872 27.8985 34.9849 26.8615 33.7528 26.8615H31.435C30.203 26.8615 29.2007 27.8985 29.2007 29.1734V37.3535H26.7163V24.6767C26.7165 23.4018 25.7142 22.3647 24.4821 22.3647ZM22.081 24.6767C22.081 24.6291 22.1184 24.5904 22.1643 24.5904H24.4821C24.5281 24.5904 24.5655 24.6291 24.5655 24.6767V37.3535H22.081V24.6767ZM40.6228 22.2785C40.6228 22.231 40.6602 22.1922 40.7061 22.1922H43.0239C43.0699 22.1922 43.1074 22.231 43.1074 22.2785V37.3535H40.623V22.2785H40.6228ZM31.352 29.1734C31.352 29.1259 31.3894 29.0871 31.4353 29.0871H33.7531C33.7991 29.0871 33.8365 29.1259 33.8365 29.1734V37.3535H31.3521V29.1734H31.352Z" fill="#E8965A"/>
<path d="M81.3832 43.8811L79.5417 43.4842C79.3308 42.8331 79.0752 42.1958 78.7775 41.5787L79.8093 39.9492C80.402 39.0131 80.2771 37.7593 79.5123 36.9681L76.7746 34.1354C76.0099 33.3441 74.798 33.215 73.8939 33.8284L72.3189 34.896C71.7225 34.5879 71.1066 34.3235 70.4775 34.1053L70.0938 32.1996C69.8732 31.104 68.9282 30.309 67.8467 30.309H63.9751C62.8936 30.309 61.9486 31.104 61.7281 32.1996L61.3443 34.1053C60.7151 34.3235 60.0992 34.5879 59.5029 34.896L57.9281 33.8285C57.1517 33.3019 56.1501 33.3239 55.3979 33.8406V14.3347C55.3979 12.0685 53.616 10.2246 51.4257 10.2246H13.1824C11.3116 10.2246 9.78955 11.7995 9.78955 13.7353V17.0293C9.78955 17.644 10.2711 18.1421 10.8651 18.1421C11.459 18.1421 11.9406 17.644 11.9406 17.0293V13.7353C11.9406 13.0268 12.4977 12.4503 13.1824 12.4503H51.4259C52.43 12.4503 53.2471 13.2956 53.2471 14.3347V35.9981L52.3097 36.9681C51.5449 37.7593 51.4199 39.0131 52.0127 39.9492L53.0444 41.5787C52.7469 42.1957 52.4912 42.833 52.2803 43.4842L50.4387 43.8811C49.3798 44.1093 48.6114 45.0871 48.6114 46.2064V47.0969H27.2815C26.9744 47.0969 26.6818 47.2329 26.4778 47.4706L19.1837 55.9605V48.2098C19.1837 47.5951 18.7022 47.0969 18.1082 47.0969H13.1824C12.4977 47.0969 11.9406 46.5197 11.9406 45.8105V22.2374C11.9406 21.6227 11.459 21.1246 10.8651 21.1246C10.2711 21.1246 9.78955 21.6227 9.78955 22.2374V45.8105C9.78955 47.7471 11.3116 49.3226 13.1824 49.3226H17.0327V56.169C17.0327 57.3529 17.9635 58.3161 19.1077 58.3161C19.703 58.3161 20.2697 58.0514 20.6586 57.5939L27.7644 49.3228H30.6529V63.0731C30.6529 63.6879 31.1344 64.186 31.7284 64.186C32.3224 64.186 32.8039 63.6879 32.8039 63.0731V49.3228H48.6114V50.2123C48.6114 51.3313 49.3797 52.3091 50.4386 52.5376L52.2801 52.9345C52.4911 53.5857 52.7467 54.223 53.0443 54.84L52.0125 56.4695C51.4199 57.4055 51.5448 58.6591 52.3095 59.4506L55.047 62.283C55.8116 63.0743 57.0234 63.2037 57.9279 62.5903L59.5029 61.5227C60.0993 61.8307 60.7152 62.0952 61.3443 62.3134L61.7281 64.2191C61.9486 65.3147 62.8936 66.1097 63.9751 66.1097H67.8467C68.9282 66.1097 69.8732 65.3147 70.0938 64.2191L70.4775 62.3134C71.1067 62.0952 71.7226 61.8307 72.3189 61.5227L73.8937 62.5903C73.964 62.6379 74.0366 62.6795 74.1103 62.7182V71.142C74.1103 71.8505 73.5532 72.427 72.8684 72.427H67.9426C67.3486 72.427 66.8671 72.9251 66.8671 73.5398V81.2921L59.5716 72.8004C59.3675 72.5629 59.075 72.427 58.7678 72.427H34.0456C33.3609 72.427 32.8038 71.8505 32.8038 71.142V68.2811C32.8038 67.6664 32.3222 67.1683 31.7282 67.1683C31.1343 67.1683 30.6527 67.6664 30.6527 68.2811V71.1417C30.6527 73.0775 32.1748 74.6524 34.0456 74.6524H58.2849L65.3911 82.9238C65.784 83.3826 66.3497 83.6457 66.9431 83.6457C68.0873 83.6457 69.0181 82.6825 69.0181 81.4986V74.6525H72.8684C74.7392 74.6525 76.2613 73.0776 76.2613 71.1419V62.6798C76.4464 62.5746 76.6201 62.443 76.7748 62.2829L79.5124 59.4501C80.2771 58.6588 80.402 57.4052 79.8093 56.4692L78.7775 54.8397C79.0751 54.2227 79.3308 53.5853 79.5417 52.9342L81.3835 52.5371C82.4421 52.3088 83.2106 51.331 83.2106 50.212V46.2062C83.2106 45.0871 82.4421 44.1093 81.3832 43.8811ZM81.0596 50.2122C81.0596 50.2826 81.0113 50.3441 80.9447 50.3583L78.4828 50.8889C78.0911 50.9734 77.777 51.2759 77.6676 51.6743C77.4122 52.6043 77.05 53.5074 76.5912 54.3586C76.3962 54.7204 76.4116 55.1642 76.6308 55.5107L78.0102 57.6892C78.0475 57.7479 78.0396 57.8269 77.9915 57.8766L75.2539 60.7093C75.2058 60.7591 75.1298 60.7672 75.0728 60.7286L72.9675 59.3015C72.6327 59.0744 72.2039 59.0586 71.8543 59.2605C71.0316 59.7352 70.1587 60.1101 69.26 60.3744C68.8751 60.4876 68.5827 60.8124 68.5012 61.2179L67.9882 63.7653C67.9743 63.8342 67.9149 63.8842 67.847 63.8842H63.9754C63.9075 63.8842 63.8479 63.8342 63.8342 63.7653L63.3212 61.2179C63.2396 60.8126 62.9473 60.4876 62.5624 60.3744C61.6637 60.1101 60.7908 59.7353 59.9681 59.2605C59.8049 59.1663 59.6245 59.1195 59.4443 59.1195C59.2385 59.1195 59.0333 59.1805 58.8549 59.3016L56.7496 60.7287C56.693 60.7673 56.6167 60.7593 56.5684 60.7093L53.8309 57.8769C53.7828 57.827 53.7748 57.7482 53.8121 57.6893L55.1914 55.511C55.4108 55.1645 55.426 54.7207 55.2312 54.3589C54.7723 53.5077 54.41 52.6045 54.1547 51.6743C54.0452 51.2761 53.7312 50.9735 53.3394 50.8891L50.8778 50.3586C50.8111 50.3441 50.7628 50.2827 50.7628 50.2123V46.2065C50.7628 46.136 50.811 46.0746 50.8777 46.0604L53.3394 45.5298C53.7312 45.4453 54.0452 45.1428 54.1547 44.7445C54.41 43.8143 54.7723 42.9113 55.2312 42.0599C55.426 41.6982 55.4108 41.2543 55.1914 40.9079L53.8121 38.7295C53.7748 38.6708 53.7827 38.5918 53.8307 38.542L56.5682 35.7094C56.6164 35.6597 56.6927 35.6515 56.7495 35.6901L58.8547 37.1172C59.1894 37.344 59.6182 37.36 59.968 37.1582C60.7908 36.6834 61.6637 36.3086 62.5622 36.0443C62.9471 35.9311 63.2395 35.6063 63.3211 35.2008L63.834 32.6534C63.8479 32.5845 63.9073 32.5345 63.9753 32.5345H67.8468C67.9148 32.5345 67.9743 32.5845 67.9881 32.6534L68.501 35.2008C68.5826 35.6061 68.875 35.9311 69.2599 36.0443C70.1586 36.3086 71.0315 36.6835 71.8541 37.1582C72.2038 37.3598 72.6325 37.344 72.9674 37.1172L75.0729 35.69C75.1297 35.6514 75.206 35.6595 75.2539 35.7093L77.9915 38.5421C78.0396 38.5918 78.0475 38.6706 78.0102 38.7295L76.6308 40.9079C76.4114 41.2543 76.3962 41.6982 76.5911 42.0599C77.05 42.9112 77.4122 43.8145 77.6676 44.7444C77.777 45.1428 78.0911 45.4453 78.4828 45.5298L80.9447 46.0604C81.0113 46.0748 81.0594 46.1362 81.0594 46.2065V50.2122H81.0596Z" fill="#E8965A"/>
<path d="M65.9107 38.1038C64.3338 38.1038 62.7676 38.5019 61.3812 39.255C60.8554 39.5408 60.6527 40.2134 60.9289 40.7577C61.205 41.3018 61.855 41.5112 62.3811 41.2257C63.4759 40.631 64.6634 40.3295 65.9108 40.3295C70.1103 40.3295 73.5268 43.8646 73.5268 48.2097C73.5268 52.555 70.1103 56.0902 65.9108 56.0902C61.7113 56.0902 58.2948 52.555 58.2948 48.2097C58.2948 46.8712 58.6242 45.5506 59.2476 44.3915C59.5364 43.8544 59.3495 43.1767 58.8305 42.878C58.3113 42.579 57.6565 42.7722 57.3679 43.3094C56.5671 44.7988 56.1438 46.4934 56.1438 48.2097C56.1438 53.7824 60.5253 58.3159 65.9108 58.3159C71.2964 58.3159 75.6778 53.7823 75.6778 48.2097C75.6777 42.6373 71.2962 38.1038 65.9107 38.1038Z" fill="#E8965A"/>
<path d="M64.7405 51.7452C65.0157 51.7452 65.2911 51.6365 65.501 51.4193L70.1842 46.5735C70.6042 46.1388 70.6042 45.4343 70.1842 44.9997C69.7641 44.5652 69.0831 44.5652 68.6633 44.9997L64.7405 49.0586L63.1594 47.4226C62.7394 46.9881 62.0584 46.9881 61.6385 47.4226C61.2185 47.8573 61.2185 48.5618 61.6385 48.9964L63.9801 51.4193C64.19 51.6365 64.4654 51.7452 64.7405 51.7452Z" fill="#E8965A"/>
</svg>
