<svg width="93" height="94" viewBox="0 0 93 94" fill="none" xmlns="http://www.w3.org/2000/svg">
<rect y="0.435059" width="92.6562" height="92.6561" rx="10" fill="#4422F2" fill-opacity="0.3"/>
<path d="M82.6562 51.5153V42.0111C82.6562 41.4354 82.2382 40.945 81.6697 40.854L75.8559 39.9234C75.1032 36.6585 73.8229 33.5705 72.0417 30.7236L75.4968 25.9514C75.8346 25.4852 75.7834 24.8427 75.3764 24.4356L68.6559 17.7152C68.2489 17.3083 67.6064 17.257 67.1399 17.5946L62.3677 21.0498C59.5199 19.2682 56.4322 17.9881 53.1679 17.2354L52.2373 11.4218C52.1463 10.8533 51.6558 10.4351 51.0801 10.4351H41.5759C41.0002 10.4351 40.5098 10.8533 40.4188 11.4216L39.4882 17.2353C36.2235 17.9879 33.1355 19.2681 30.2882 21.0495L25.5162 17.5945C25.0501 17.2568 24.4075 17.3081 24.0002 17.715L17.2797 24.4354C16.8728 24.8425 16.8215 25.485 17.1593 25.9514L20.6144 30.7234C18.8323 33.5723 17.5521 36.6597 16.8001 39.9232L10.9864 40.8539C10.4181 40.945 10 41.4354 10 42.0111V51.5153C10 52.091 10.4181 52.5814 10.9866 52.6724L16.8002 53.603C17.5529 56.8675 18.8332 59.9556 20.6146 62.8028L17.1594 67.575C16.8216 68.0412 16.8729 68.6837 17.2798 69.0908L24.0004 75.8112C24.4078 76.2184 25.0502 76.2691 25.5164 75.9317L30.2884 72.4766C33.1372 74.2587 36.2251 75.539 39.4883 76.2909L40.4189 82.1046C40.5099 82.673 41.0005 83.0912 41.576 83.0912H51.0802C51.6559 83.0912 52.1463 82.673 52.2373 82.1046L53.0723 76.889C56.1246 80.6689 60.794 83.0912 66.0194 83.0912C75.193 83.0913 82.6562 75.6281 82.6562 66.4545C82.6562 61.2291 80.2338 56.5595 76.454 53.5072L81.6695 52.6724C82.2382 52.5815 82.6562 52.0911 82.6562 51.5153ZM67.2612 49.8641C66.8512 49.8336 66.4372 49.8178 66.0194 49.8178C63.5037 49.8178 61.1173 50.3802 58.9775 51.384V49.531C58.9775 46.762 56.8807 44.654 53.2245 43.7471C51.9503 43.4311 50.6775 43.2046 49.4084 43.0617C51.3492 41.6995 52.665 39.0941 52.665 36.1086C52.665 32.0707 50.2369 29.5621 46.3283 29.5621C42.4195 29.5621 39.9914 32.0707 39.9914 36.1086C39.9914 39.0877 41.3017 41.6881 43.2355 43.0526C41.9551 43.1953 40.6829 43.4252 39.4223 43.7494C35.7186 44.7014 33.6788 46.7547 33.6788 49.531V59.9573C33.6788 60.6045 34.2035 61.1292 34.8506 61.1292H50.2568C49.6902 62.8019 49.3828 64.593 49.3828 66.4545C49.3828 66.8721 49.3986 67.2862 49.4291 67.6962C48.404 67.8468 47.3651 67.9231 46.3281 67.9231C34.6605 67.9231 25.1682 58.4308 25.1682 46.763C25.1682 35.0953 34.6605 25.6031 46.3281 25.6031C57.9958 25.6031 67.4881 35.0956 67.4881 46.7632C67.4881 47.8001 67.4118 48.839 67.2612 49.8641ZM52.59 50.7559C51.9429 50.7559 51.4182 51.2806 51.4182 51.9278V58.4871C51.3641 58.5858 51.3114 58.6854 51.2592 58.7853H41.2378V51.9278C41.2378 51.2806 40.7131 50.7559 40.0659 50.7559C39.4188 50.7559 38.894 51.2806 38.894 51.9278V58.7853H36.0224V49.5309C36.0224 47.4747 38.1884 46.4863 40.0056 46.0192C44.1256 44.9597 48.3829 44.9605 52.6601 46.0217C54.1441 46.3898 56.6336 47.3351 56.6336 49.5309V52.7255C55.5837 53.4457 54.62 54.2825 53.7619 55.218V51.9276C53.7619 51.2806 53.2372 50.7559 52.59 50.7559ZM46.3281 41.7249C44.1263 41.7249 42.335 39.2053 42.335 36.1085C42.335 32.4517 44.8368 31.9057 46.3281 31.9057C47.8195 31.9057 50.3211 32.4518 50.3211 36.1085C50.3211 39.2055 48.5298 41.7249 46.3281 41.7249ZM80.3125 66.4545C80.3125 74.3358 73.9007 80.7476 66.0194 80.7476C58.1383 80.7476 51.7265 74.3358 51.7265 66.4545C51.7265 58.5732 58.1383 52.1616 66.0194 52.1616C73.9007 52.1616 80.3125 58.5733 80.3125 66.4545ZM80.3125 50.5161L74.6947 51.4152C74.4005 51.4624 74.1439 51.6187 73.9656 51.8415C72.607 51.0997 71.1336 50.5428 69.5802 50.2028C69.7472 49.0656 69.8318 47.9132 69.8318 46.7632C69.8318 33.8031 59.288 23.2595 46.328 23.2595C33.3679 23.2595 22.8243 33.8033 22.8243 46.7632C22.8243 59.7231 33.3681 70.267 46.328 70.267C47.4782 70.267 48.6304 70.1824 49.7676 70.0154C50.1077 71.5688 50.6646 73.0422 51.4064 74.401C51.1836 74.5791 51.0273 74.8357 50.9802 75.13L50.0809 80.7476H42.5752L41.6759 75.1299C41.5987 74.6474 41.2302 74.2634 40.7513 74.1666C37.2246 73.4529 33.9092 72.0785 30.8973 70.0813C30.4904 69.8115 29.9585 69.8223 29.5625 70.1088L24.9512 73.4477L19.6439 68.1402L22.9826 63.5288C23.2691 63.133 23.2801 62.6011 23.0102 62.1938C21.0139 59.1842 19.6393 55.8688 18.9249 52.34C18.8279 51.861 18.4439 51.4926 17.9616 51.4154L12.3438 50.5161V43.0103L17.9614 42.111C18.4439 42.0338 18.8279 41.6652 18.9247 41.1864C19.6385 37.6595 21.013 34.3442 23.01 31.3325C23.2801 30.9254 23.2691 30.3934 22.9825 29.9976L19.6438 25.3864L24.9511 20.079L29.5624 23.4177C29.9581 23.7042 30.4902 23.715 30.8973 23.4451C33.907 21.4489 37.2224 20.0743 40.7513 19.3598C41.2302 19.2628 41.5986 18.8789 41.6759 18.3965L42.5752 12.7788H50.0809L50.9802 18.3965C51.0574 18.8789 51.4259 19.2628 51.9048 19.3598C55.4329 20.0742 58.7482 21.4488 61.7588 23.4451C62.1657 23.7149 62.6976 23.7042 63.0936 23.4175L67.7049 20.0789L73.0123 25.3863L69.6736 29.9976C69.3871 30.3934 69.3761 30.9253 69.6461 31.3325C71.6422 34.3419 73.0167 37.6573 73.7314 41.1864C73.8284 41.6652 74.2123 42.0336 74.6947 42.111L80.3125 43.0103V50.5161ZM70.7373 60.0035L63.735 67.1077L61.3019 64.6746C60.6508 64.0234 59.7851 63.6647 58.8641 63.6647C57.9432 63.6647 57.0774 64.0233 56.4263 64.6744C55.7751 65.3255 55.4163 66.1914 55.4163 67.1122C55.4163 68.0332 55.7749 68.8989 56.4262 69.55L61.3067 74.4306C61.979 75.1026 62.8617 75.4387 63.7445 75.4385C64.6274 75.4385 65.5104 75.1025 66.1825 74.4304C68.6715 71.9412 73.7531 66.7396 75.6212 64.8528C76.2694 64.201 76.6249 63.336 76.6224 62.4168C76.6198 61.4976 76.2594 60.6344 75.6077 59.9863C74.2624 58.6483 72.0791 58.6543 70.7373 60.0035ZM73.9574 63.2022C72.0818 65.0964 67.0045 70.294 64.525 72.7734C64.0946 73.2038 63.3943 73.2038 62.9641 72.7734L58.0836 67.8928H58.0835C57.875 67.6844 57.7602 67.4072 57.7602 67.1124C57.7602 66.8176 57.875 66.5403 58.0836 66.3319C58.2921 66.1234 58.5691 66.0086 58.8641 66.0086C59.159 66.0086 59.436 66.1234 59.6446 66.3319L62.9125 69.5997C63.1322 69.8194 63.4303 69.9429 63.741 69.9429H63.7453C64.0576 69.9417 64.3564 69.816 64.5755 69.5937L72.4026 61.6527C72.8293 61.2235 73.5257 61.2218 73.9551 61.6485C74.1629 61.8552 74.2778 62.1304 74.2787 62.4235C74.2793 62.7165 74.166 62.9925 73.9574 63.2022Z" fill="#4422F2"/>
</svg>
