<svg width="48" height="48" viewBox="0 0 48 48" fill="none" xmlns="http://www.w3.org/2000/svg">
<path d="M24.2582 45.8438H23.7417C23.2585 45.8438 22.7841 45.7579 22.3315 45.5886C17.3538 43.7263 13.3541 40.7082 10.4434 36.618C8.15765 33.4061 6.57231 29.5665 5.73147 25.2059C4.34455 18.0135 5.46763 11.7788 5.51612 11.5169C5.76444 10.1761 6.66386 9.06176 7.92208 8.5361L22.4485 2.46731C22.9425 2.2609 23.4645 2.15625 23.9999 2.15625C24.5354 2.15625 25.0574 2.2609 25.5514 2.46729L40.0778 8.53608C41.3361 9.06178 42.2355 10.1761 42.4837 11.5169C42.5322 11.7788 43.6552 18.0142 42.2684 25.2059C41.4275 29.5665 39.8422 33.4061 37.5565 36.618C34.6458 40.7082 30.6461 43.7263 25.6684 45.5885C25.2158 45.7579 24.7414 45.8438 24.2582 45.8438ZM23.9999 3.65625C23.6641 3.65625 23.3366 3.7219 23.0267 3.85137L8.5003 9.92016C7.71102 10.2499 7.14681 10.9489 6.99105 11.79C6.94466 12.0405 5.87048 18.0046 7.20433 24.9219C8.00423 29.0701 9.50519 32.7126 11.6655 35.7483C14.3995 39.5901 18.1648 42.4282 22.857 44.1837C23.1409 44.2899 23.4386 44.3437 23.7417 44.3437H24.2582C24.5613 44.3437 24.8589 44.2899 25.1429 44.1836C29.835 42.4282 33.6004 39.5901 36.3344 35.7483C38.4947 32.7126 39.9956 29.0701 40.7956 24.9219C42.1293 18.0053 41.0552 12.0405 41.0088 11.79C40.8531 10.9489 40.2889 10.2499 39.4996 9.92013L24.9732 3.85134C24.6633 3.7219 24.3358 3.65625 23.9999 3.65625Z" fill="#2C7B78"/>
<path d="M24.2582 42.5691H23.7418C23.652 42.5691 23.563 42.5529 23.4789 42.5215C19.1245 40.8924 15.6364 38.2674 13.1115 34.7194C11.0996 31.8922 9.69843 28.4828 8.947 24.5859C8.28266 21.1408 8.2596 17.941 8.35722 15.8634C8.46332 13.6058 8.72504 12.1731 8.73613 12.1133C8.78223 11.8643 8.95084 11.6554 9.18446 11.5578L23.7108 5.489C23.8958 5.41171 24.1041 5.41171 24.2891 5.489L38.8154 11.5578C39.0491 11.6554 39.2177 11.8643 39.2638 12.1133C39.2749 12.1731 39.5366 13.6058 39.6427 15.8634C39.7403 17.941 39.7173 21.1407 39.0529 24.5859C38.3015 28.4828 36.9004 31.8922 34.8884 34.7194C32.3635 38.2674 28.8754 40.8924 24.521 42.5215C24.437 42.553 24.348 42.5691 24.2582 42.5691ZM23.8785 41.0691H24.1215C31.4438 38.285 35.9714 32.6446 37.5801 24.3019C38.6117 18.9523 38.053 14.1571 37.8516 12.7808L24 6.99385L10.1481 12.7808C10.0653 13.3442 9.92216 14.4791 9.85349 15.9792C9.76206 17.9761 9.78758 21.0486 10.4284 24.3459C12.0451 32.6646 16.5696 38.2902 23.8785 41.0691Z" fill="#2C7B78"/>
<path d="M27.6148 33.284H20.3853C18.4438 33.284 16.8643 31.7044 16.8643 29.7628V23.8879C16.8643 21.9463 18.4438 20.3667 20.3853 20.3667H27.6148C29.5563 20.3667 31.1358 21.9463 31.1358 23.8879V29.7628C31.1358 31.7044 29.5563 33.284 27.6148 33.284ZM20.3853 21.8667C19.2709 21.8667 18.3643 22.7734 18.3643 23.8879V29.7628C18.3643 30.8773 19.2709 31.784 20.3853 31.784H27.6148C28.7292 31.784 29.6358 30.8773 29.6358 29.7628V23.8879C29.6358 22.7734 28.7292 21.8667 27.6148 21.8667H20.3853ZM24 27.7216C22.8543 27.7216 21.9221 26.7895 21.9221 25.6437C21.9221 24.4977 22.8543 23.5655 24 23.5655C25.1459 23.5655 26.078 24.4977 26.078 25.6437C26.078 26.7895 25.1459 27.7216 24 27.7216ZM24 25.0654C23.6813 25.0654 23.4221 25.3248 23.4221 25.6437C23.4221 25.9624 23.6814 26.2216 24 26.2216C24.3187 26.2216 24.578 25.9623 24.578 25.6437C24.578 25.3248 24.3187 25.0654 24 25.0654Z" fill="#2C7B78"/>
<path d="M28.6704 21.8668C28.2562 21.8668 27.9204 21.531 27.9204 21.1168V18.8196C27.9204 16.6578 26.1616 14.899 23.9999 14.899C21.8381 14.899 20.0793 16.6578 20.0793 18.8196V21.1168C20.0793 21.531 19.7436 21.8668 19.3293 21.8668C18.9151 21.8668 18.5793 21.531 18.5793 21.1168V18.8196C18.5793 17.3717 19.1432 16.0105 20.167 14.9867C21.1908 13.9629 22.552 13.399 23.9999 13.399C25.4477 13.399 26.8089 13.9629 27.8327 14.9867C28.8565 16.0105 29.4204 17.3717 29.4204 18.8196V21.1168C29.4204 21.531 29.0846 21.8668 28.6704 21.8668Z" fill="#2C7B78"/>
<path d="M24 29.9602C23.5858 29.9602 23.25 29.6244 23.25 29.2102V26.9717C23.25 26.5575 23.5858 26.2217 24 26.2217C24.4142 26.2217 24.75 26.5575 24.75 26.9717V29.2102C24.75 29.6244 24.4142 29.9602 24 29.9602Z" fill="#2C7B78"/>
</svg>
